<svg version="1.1" id="Layer_1" xmlns="http://www.w3.org/2000/svg" xmlns:xlink="http://www.w3.org/1999/xlink" x="0px" y="0px"
	 width="100%" viewBox="0 0 500 500" enable-background="new 0 0 500 500" xml:space="preserve">
<path fill="#FFFFFF" opacity="1.000000" stroke="none" 
	d="
M276.000000,501.000000 
	C184.000015,501.000000 92.500046,501.000000 1.000049,501.000000 
	C1.000033,334.333405 1.000033,167.666794 1.000016,1.000139 
	C167.666565,1.000092 334.333130,1.000092 500.999756,1.000046 
	C500.999847,167.666519 500.999847,334.333038 500.999939,500.999786 
	C426.166656,501.000000 351.333344,501.000000 276.000000,501.000000 
M183.698410,291.862427 
	C187.828873,288.323853 191.959351,284.785278 196.812866,280.983093 
	C198.728134,281.077667 200.848267,280.668060 202.525146,281.349365 
	C212.727188,285.494446 222.696960,279.816437 223.992126,268.179016 
	C223.862717,260.993439 220.343414,255.711060 214.207306,253.492249 
	C208.276138,251.347534 201.283997,253.177505 197.274292,258.569794 
	C195.413040,261.072815 193.909515,261.353180 191.109818,260.467468 
	C181.792953,257.519989 172.372925,254.898651 162.314957,251.834656 
	C156.658844,250.075134 151.002716,248.315613 145.244202,246.524246 
	C144.745148,241.773590 143.071350,237.925797 138.329193,235.905380 
	C137.530075,235.564880 136.993073,233.505463 137.108734,232.315445 
	C137.574036,227.527786 138.343094,222.769653 139.337265,217.274185 
	C139.575729,214.630737 139.769592,211.982330 140.063385,209.345032 
	C140.474258,205.656784 140.412445,202.043823 145.311417,200.518219 
	C147.272812,199.907410 149.674194,196.481506 149.607162,194.410400 
	C149.434540,189.077545 152.490784,187.381531 156.511658,185.857513 
	C158.435257,185.128403 160.183975,183.937866 162.748779,183.134033 
	C171.721054,178.822372 180.715286,174.555481 189.651138,170.169601 
	C192.076355,168.979263 193.840088,168.653625 196.269745,170.739853 
	C201.860229,175.540054 209.617554,174.571899 213.950607,169.056717 
	C218.231567,163.607819 217.478378,156.207443 212.177933,151.639450 
	C207.004425,147.180862 198.935165,147.797409 194.500671,153.493393 
	C192.553345,155.994675 190.993042,156.046570 188.231354,155.311035 
	C180.558243,153.267395 172.768295,151.662506 164.358322,149.786438 
	C162.822250,149.466385 161.124924,149.455963 159.785431,148.758423 
	C157.385376,147.508514 153.954117,148.013397 153.694824,143.285172 
	C153.478333,139.337265 150.019348,136.418121 145.516998,136.220490 
	C141.164948,136.029434 137.711166,137.893967 135.862549,141.892441 
	C134.151276,145.593857 133.845291,150.287323 137.237137,152.369888 
	C142.669205,155.705154 141.623810,159.971588 141.073242,164.623047 
	C140.861435,166.412506 140.899521,168.231552 140.402390,170.825699 
	C139.875305,176.546188 140.812027,183.000046 133.192062,185.167328 
	C132.910599,185.247375 132.559265,185.564545 132.489624,185.835297 
	C131.011353,191.582825 126.338852,191.110443 121.063622,191.117981 
	C119.570786,191.158127 118.073639,191.290466 116.585938,191.220886 
	C112.373375,191.023849 107.895195,192.620956 104.441208,188.058868 
	C103.683907,187.058609 99.022530,187.795273 97.166824,189.131561 
	C94.392921,191.129028 94.473602,194.896362 97.231186,196.832031 
	C99.076714,198.127502 103.406105,198.782150 104.527054,197.649078 
	C107.462906,194.681396 110.662254,195.023407 114.045525,194.903824 
	C116.694771,194.810196 119.341255,194.638275 122.849213,194.730698 
	C125.365730,195.010773 128.776123,194.344101 130.246429,195.732285 
	C137.190521,202.288483 136.988220,202.487930 136.196976,212.555298 
	C136.080917,214.031998 136.156876,215.523804 135.930374,217.803528 
	C135.195450,223.660019 134.460541,229.516510 133.818604,234.632065 
	C131.279968,236.224060 128.283752,237.018555 127.622330,238.720428 
	C125.609123,243.900452 121.410027,243.320099 117.431732,243.631378 
	C114.290268,243.877167 111.135979,243.959122 107.390388,243.747421 
	C107.181374,243.298386 107.048424,242.789978 106.751488,242.409561 
	C104.033279,238.926987 100.710396,238.273453 97.770348,240.609543 
	C95.013596,242.799988 94.732445,246.840546 97.159042,249.394730 
	C99.623299,251.988510 103.397278,251.750992 106.335037,248.808075 
	C106.910637,248.231491 107.457062,247.625778 108.702217,247.254913 
	C113.981827,247.254913 119.261429,247.254913 123.881577,247.254913 
	C126.244377,249.733139 128.075485,253.404816 130.501221,253.852173 
	C136.503555,254.959106 137.059067,259.167694 138.151215,263.587799 
	C139.019608,267.102356 140.196854,270.540649 141.255157,274.779358 
	C141.688400,276.353302 142.139038,277.922668 142.552032,279.501892 
	C145.029510,288.975555 147.498322,298.451477 149.300186,308.128632 
	C144.594116,312.453247 143.536133,317.346741 146.362076,321.718262 
	C148.950333,325.722137 154.320862,327.356140 158.647736,325.456207 
	C163.329620,323.400391 165.266449,318.721741 163.725769,312.228210 
	C164.645218,310.856567 165.367584,309.285889 166.517670,308.147186 
	C171.970413,302.748383 177.539841,297.467407 183.698410,291.862427 
M223.571091,431.053741 
	C229.710373,433.702332 235.849640,436.350922 242.563995,439.460266 
	C247.346542,440.726349 252.129105,441.992432 257.547302,443.713837 
	C259.173706,444.011444 260.803162,444.579987 262.426056,444.561829 
	C271.619049,444.458832 280.810425,444.215363 290.830078,444.149567 
	C303.218506,442.157562 314.421783,437.513672 324.192902,430.039612 
	C319.889038,423.971771 315.984741,418.467224 312.007263,412.223358 
	C310.957336,409.480865 309.907440,406.738403 308.957672,403.167450 
	C307.237640,393.564087 309.426056,384.892609 315.763123,376.768036 
	C318.489532,374.109131 321.215912,371.450226 324.805542,368.786682 
	C332.301178,370.008209 339.760376,371.581451 347.301605,372.363281 
	C356.980927,373.366760 366.773804,374.313049 376.839081,370.092590 
	C383.733307,367.850250 389.567566,364.350922 392.784363,356.563324 
	C392.949432,352.019623 393.563446,347.437347 393.177612,342.940948 
	C392.549500,335.621613 391.267792,328.358398 390.741302,320.583466 
	C392.112823,318.149139 393.165222,315.451294 394.916229,313.330261 
	C400.001465,307.170227 399.999908,306.035614 393.754913,300.222137 
	C396.377533,299.054169 398.970978,297.814392 401.629456,296.734680 
	C405.845764,295.022278 406.840546,292.465881 405.093323,288.068665 
	C403.725006,284.625031 403.518433,280.719757 403.053284,276.355194 
	C404.794556,274.285522 406.206818,271.732117 408.359741,270.267609 
	C411.103516,268.401154 414.446289,267.415222 418.228424,266.055145 
	C422.169250,264.027679 426.464172,262.479095 429.981293,259.878571 
	C438.795227,253.361679 439.266876,246.678955 432.009247,238.590790 
	C426.388245,232.326553 420.714142,226.109985 414.929749,219.188705 
	C408.633209,209.643555 405.140961,199.259109 405.893829,187.725052 
	C406.281738,181.781769 407.043396,175.862854 407.786346,169.500595 
	C407.786346,169.500595 407.699738,169.051163 407.901550,168.304916 
	C407.862457,167.536301 407.823364,166.767670 407.945404,165.237122 
	C407.896332,164.463150 407.847260,163.689194 407.925476,162.058624 
	C407.224396,157.379059 406.523346,152.699493 405.919556,147.248672 
	C402.824982,134.905548 396.601471,124.135651 389.078918,113.376221 
	C388.605377,112.791214 388.131805,112.206215 387.629181,111.560707 
	C387.629181,111.560707 387.591125,111.505394 387.353577,110.861694 
	C378.500061,98.252274 368.084076,87.216728 354.717590,78.234161 
	C348.486359,74.797791 342.255096,71.361427 335.624298,67.342499 
	C329.100616,65.175240 322.576904,63.007984 315.522552,60.293362 
	C306.118805,59.134037 296.715027,57.974712 286.591492,56.319992 
	C270.389374,55.444710 254.603882,57.985653 238.285339,62.287697 
	C232.465378,64.430786 226.645416,66.573868 220.094666,68.849846 
	C204.873520,75.160088 190.538574,82.878700 178.296371,95.149269 
	C176.830353,96.730621 175.364349,98.311974 173.332260,100.253441 
	C167.200394,107.362831 162.078033,114.961517 160.517242,124.531319 
	C159.176132,132.754181 163.428970,141.432358 171.477203,143.289566 
	C177.382462,144.652237 183.806396,143.767258 190.788910,143.954788 
	C196.625290,141.827652 202.414841,139.558228 208.312363,137.616760 
	C213.357864,135.955780 218.527161,134.670792 224.080139,133.779938 
	C229.440506,138.418182 228.804001,144.843063 229.049149,151.730988 
	C225.398453,167.012238 215.402313,177.529312 202.326141,186.554214 
	C198.895218,187.044708 195.434937,187.386093 192.039001,188.054443 
	C182.822128,189.868347 174.066452,192.659805 167.364960,200.952438 
	C157.740143,213.979019 160.111816,229.826187 172.573547,236.595490 
	C178.779816,239.966782 185.060501,238.875336 191.424271,237.515274 
	C197.270233,236.265884 203.117996,235.024918 209.706833,233.973694 
	C218.514252,236.403580 226.376343,240.517975 233.077087,247.521851 
	C233.386581,247.691406 233.696060,247.860947 234.009201,247.994415 
	C234.009201,247.994415 233.972961,247.995590 234.069855,248.704971 
	C239.419815,255.652267 239.747330,263.658508 238.664581,272.155548 
	C238.475082,272.391174 238.464386,272.634644 238.245026,273.560638 
	C237.874786,275.053284 237.504532,276.545929 236.636887,278.527618 
	C235.537796,280.758179 234.528900,283.038788 233.324142,285.210724 
	C227.804443,295.161377 219.460785,302.534973 210.204910,309.917206 
	C205.105621,313.509155 200.006332,317.101105 194.234375,320.907135 
	C188.524460,324.954620 182.814560,329.002075 176.436600,333.213867 
	C171.154739,337.078644 165.872894,340.943420 159.961273,344.999146 
	C155.271454,348.578918 150.581650,352.158691 145.233765,355.952057 
	C140.433960,359.831299 135.634155,363.710541 130.194702,367.860260 
	C123.524887,374.518372 116.619392,380.965759 110.348106,387.980164 
	C108.746117,389.771973 109.152046,393.358948 108.635445,396.121155 
	C111.114754,396.275574 113.687073,396.935425 116.057701,396.499207 
	C127.971649,394.307068 139.927063,391.402100 152.010452,394.096741 
	C160.822235,396.061798 169.343704,399.328705 178.422897,402.548157 
	C185.601410,407.007477 192.779922,411.466827 200.358109,416.479980 
	C203.862564,418.729095 207.367004,420.978241 211.212158,423.811859 
	C215.138443,426.080597 219.064728,428.349335 223.571091,431.053741 
M125.976242,170.333420 
	C128.521072,165.892685 128.176559,161.709366 124.414383,158.197678 
	C121.159912,155.159882 117.267914,154.837433 113.419868,157.006409 
	C109.508919,159.210846 107.573349,162.989395 109.132767,167.065918 
	C110.171936,169.782440 112.807747,172.445618 115.417923,173.871399 
	C119.209465,175.942474 122.744026,173.988983 125.976242,170.333420 
M128.787735,105.932457 
	C125.713516,108.330635 123.899902,111.584579 126.237297,114.943512 
	C127.696228,117.040070 130.773849,118.887924 133.307251,119.161690 
	C137.533463,119.618378 140.490112,115.483368 139.980728,111.126785 
	C139.413361,106.274315 135.722031,104.300728 128.787735,105.932457 
M65.576408,223.786377 
	C68.531807,229.768509 75.524101,231.115295 78.286880,225.899811 
	C79.431839,223.738373 79.442924,219.673920 78.099571,217.859436 
	C76.729065,216.008286 72.940262,214.874130 70.429695,215.187042 
	C66.467812,215.680847 64.996391,219.092300 65.576408,223.786377 
M122.807762,285.834198 
	C119.075485,284.991302 115.793976,286.184326 114.712883,289.698090 
	C114.003464,292.003784 114.394379,295.519287 115.792252,297.344238 
	C117.058266,298.997009 120.712280,300.204742 122.664162,299.580109 
	C124.856499,298.878510 127.128532,296.175079 127.914146,293.851654 
	C129.118408,290.290192 126.969948,287.524445 122.807762,285.834198 
M95.904762,137.589966 
	C97.824249,138.036972 99.824898,138.983459 101.624260,138.691086 
	C102.369461,138.570007 103.530632,135.326599 102.985802,134.345535 
	C102.258125,133.035263 99.267014,131.464142 98.642021,131.919281 
	C97.178673,132.984940 96.545563,135.190674 95.904762,137.589966 
M83.883774,174.415253 
	C83.569756,171.186493 81.806953,169.397568 78.628113,170.333557 
	C77.432617,170.685562 76.036621,172.605194 75.961472,173.882492 
	C75.886040,175.164703 77.564934,177.749832 78.087151,177.653839 
	C80.046059,177.293777 81.846413,176.071091 83.883774,174.415253 
M83.202690,271.302612 
	C81.500328,272.440674 79.487350,273.334900 78.285461,274.865875 
	C77.926353,275.323303 79.555725,278.318970 80.784393,278.774170 
	C82.042908,279.240417 85.275955,278.065247 85.294739,277.526550 
	C85.362251,275.590881 84.436440,273.620544 83.202690,271.302612 
z"/>
<path fill="#2198E4" opacity="1.000000" stroke="none" 
	d="
M407.798187,162.915222 
	C407.847260,163.689194 407.896332,164.463150 407.472565,165.620300 
	C403.810211,166.779236 400.608093,167.506851 397.433441,168.339188 
	C384.415833,171.752167 371.305634,173.223557 357.860291,171.129868 
	C353.988068,170.526886 349.937408,171.070053 345.713013,171.064224 
	C345.286438,171.034729 345.115326,171.028778 344.966125,171.007446 
	C344.988068,170.992096 344.991333,171.045547 344.902863,170.851776 
	C344.666748,170.400055 344.449890,170.230881 344.089111,169.797150 
	C337.557007,159.786469 329.939880,151.130798 320.456177,144.419083 
	C315.701141,141.053894 310.187134,138.761139 304.706848,135.832169 
	C298.239166,132.851120 292.080994,130.021271 285.943604,126.798042 
	C284.916443,124.027695 284.010559,121.575417 282.796906,119.286316 
	C276.260345,106.957802 271.478516,94.118858 271.451477,79.934113 
	C284.954498,79.016296 294.472504,85.127060 302.057709,95.101334 
	C309.719086,105.175751 319.611084,111.960068 332.224823,113.683113 
	C340.246094,114.778824 348.438446,114.650658 356.557251,114.996758 
	C367.828094,115.477219 377.845215,119.011536 385.109741,127.933563 
	C389.278687,133.053680 392.633179,138.849182 396.223663,144.424774 
	C400.160217,150.537766 403.946442,156.747604 407.798187,162.915222 
z"/>
<path fill="#1F8EE2" opacity="1.000000" stroke="none" 
	d="
M345.968536,171.087753 
	C349.937408,171.070053 353.988068,170.526886 357.860291,171.129868 
	C371.305634,173.223557 384.415833,171.752167 397.433441,168.339188 
	C400.608093,167.506851 403.810211,166.779236 407.391998,166.001266 
	C407.823364,166.767670 407.862457,167.536301 407.678223,168.758698 
	C407.274445,169.499344 407.334869,169.739487 407.636139,169.932938 
	C407.043396,175.862854 406.281738,181.781769 405.893829,187.725052 
	C405.140961,199.259109 408.633209,209.643555 414.767883,219.829742 
	C399.131866,225.454056 383.151245,226.765015 366.858459,226.678284 
	C365.101074,220.410843 363.925812,214.346344 361.827667,208.619980 
	C358.535065,199.633881 354.619812,190.875900 350.983521,182.010345 
	C350.998779,181.999390 350.964783,182.019608 350.960388,181.717316 
	C350.626373,180.949814 350.296814,180.484634 349.983612,180.009735 
	C350.000000,180.000000 349.967590,180.021271 349.962738,179.718979 
	C349.627960,178.952026 349.298065,178.487350 348.983459,178.011353 
	C348.998779,178.000000 348.965027,178.021454 348.951263,177.677643 
	C347.945892,175.892410 346.954315,174.451004 345.981750,173.003998 
	C346.000824,172.998428 345.977325,173.030319 345.993286,172.706238 
	C345.995697,171.950684 345.982117,171.519226 345.968536,171.087753 
z"/>
<path fill="#0D1399" opacity="1.000000" stroke="none" 
	d="
M285.922821,127.191429 
	C292.080994,130.021271 298.239166,132.851120 304.833984,136.143784 
	C319.091888,146.900543 327.784058,160.959335 333.950439,176.651230 
	C338.004700,186.968262 341.250275,197.603073 344.896362,208.490875 
	C347.004303,216.909348 348.632660,225.079926 351.251770,232.919479 
	C354.760498,243.421860 359.036224,253.667969 363.115967,264.338745 
	C371.207367,278.180725 378.836914,281.795258 393.842346,279.280914 
	C394.803009,279.119965 395.892792,279.729584 396.543518,280.024841 
	C386.638275,283.981964 377.179016,284.152252 368.843414,277.676422 
	C364.342743,274.179901 360.946472,269.261780 356.918579,264.660522 
	C350.877716,250.862289 344.970215,237.388519 339.019409,223.548645 
	C337.272369,219.095612 335.568634,215.008652 333.913086,210.543701 
	C328.417969,192.686752 321.419495,175.855194 310.788452,160.803879 
	C304.971375,152.568146 297.702972,145.797424 288.177734,141.842804 
	C276.542450,137.012115 264.795837,138.240997 252.639984,141.143188 
	C246.472992,143.655853 240.677689,146.169937 234.547333,148.772308 
	C232.541122,149.560638 230.869934,150.260666 229.198746,150.960693 
	C228.804001,144.843063 229.440506,138.418182 224.142731,133.437576 
	C224.514114,132.870880 224.822891,132.646530 225.523743,132.322754 
	C231.961151,130.578506 238.006531,128.933685 244.485046,127.255417 
	C258.584503,124.641525 272.252441,124.293587 285.922821,127.191429 
z"/>
<path fill="#1C81DD" opacity="1.000000" stroke="none" 
	d="
M367.026764,227.032806 
	C383.151245,226.765015 399.131866,225.454056 414.834839,220.171509 
	C420.714142,226.109985 426.388245,232.326553 432.009247,238.590790 
	C439.266876,246.678955 438.795227,253.361679 429.981293,259.878571 
	C426.464172,262.479095 422.169250,264.027679 417.400940,266.047241 
	C414.614136,266.230347 412.611023,266.223236 410.702881,266.645416 
	C400.500061,268.902618 390.708221,268.880219 381.869385,261.663818 
	C379.116699,257.557190 376.515900,253.746872 373.887817,249.624268 
	C373.228149,248.542038 372.595734,247.772079 371.982269,246.998810 
	C372.001251,246.995499 371.985535,247.030685 371.999878,246.687714 
	C371.665405,245.565750 371.316589,244.786728 370.982086,244.006470 
	C370.996399,244.005219 370.971191,244.026276 370.981262,243.626373 
	C369.669830,237.828583 368.348297,232.430695 367.026764,227.032806 
z"/>
<path fill="#1760CC" opacity="1.000000" stroke="none" 
	d="
M357.051941,264.985016 
	C360.946472,269.261780 364.342743,274.179901 368.843414,277.676422 
	C377.179016,284.152252 386.638275,283.981964 396.860229,279.912689 
	C399.302551,278.844116 401.049133,277.931824 402.795685,277.019562 
	C403.518433,280.719757 403.725006,284.625031 405.093323,288.068665 
	C406.840546,292.465881 405.845764,295.022278 401.629456,296.734680 
	C398.970978,297.814392 396.377533,299.054169 393.358521,300.632294 
	C382.775482,303.000854 372.656860,305.546295 362.381287,306.736938 
	C353.746765,307.737366 345.138367,306.541809 338.838562,298.687500 
	C333.758331,291.606262 334.118317,283.524963 332.947937,275.794403 
	C332.245087,271.151947 331.007141,266.590515 330.452698,261.994568 
	C339.614441,262.992645 348.333191,263.988831 357.051941,264.985016 
z"/>
<path fill="#0B17A5" opacity="1.000000" stroke="none" 
	d="
M308.857513,403.995911 
	C309.907440,406.738403 310.957336,409.480865 311.693848,412.631470 
	C309.614655,414.497742 307.727325,415.832764 306.103424,417.434753 
	C297.748322,425.677246 288.234375,431.060669 275.568726,430.008575 
	C262.370850,430.059845 252.681656,424.408386 246.814453,413.304047 
	C241.353485,402.968475 243.648285,392.848541 249.777679,383.328644 
	C250.804352,381.734039 251.274490,379.781128 252.340149,377.842865 
	C262.769012,373.797607 273.279327,372.710388 283.963196,373.355774 
	C279.488129,379.868805 275.121185,385.868652 273.730713,393.807007 
	C271.089539,408.886108 282.043579,414.323242 292.181549,411.272339 
	C297.947906,409.537018 303.312164,406.465637 308.857513,403.995911 
z"/>
<path fill="#0A018F" opacity="1.000000" stroke="none" 
	d="
M283.996796,373.008545 
	C273.279327,372.710388 262.769012,373.797607 251.982239,377.881836 
	C248.103790,379.761230 244.565887,381.011505 241.817673,383.236969 
	C236.953018,387.176300 232.568542,391.708557 227.690353,396.133972 
	C225.944290,397.869324 224.490997,399.463409 222.874496,401.350800 
	C220.157196,405.760773 217.603119,409.877441 214.760742,414.191956 
	C213.272095,417.335663 212.071762,420.281494 210.871460,423.227356 
	C207.367004,420.978241 203.862564,418.729095 200.173706,415.822845 
	C202.973953,408.772736 205.958618,402.379761 209.116486,395.694000 
	C212.855011,390.598267 216.420334,385.795288 220.283005,380.843018 
	C225.719238,376.461761 230.858109,372.229889 236.356293,367.953033 
	C245.479706,365.229828 254.243851,362.551605 263.474548,359.909363 
	C276.319977,360.982635 288.727661,361.764984 301.065735,363.162201 
	C307.442535,363.884338 313.695709,365.697815 320.201508,367.274933 
	C321.579620,367.951569 322.760956,368.371429 323.942322,368.791321 
	C321.215912,371.450226 318.489532,374.109131 315.031616,376.899048 
	C304.199036,375.689514 294.097900,374.349030 283.996796,373.008545 
z"/>
<path fill="#1143BD" opacity="1.000000" stroke="none" 
	d="
M390.261932,321.071533 
	C391.267792,328.358398 392.549500,335.621613 393.177612,342.940948 
	C393.563446,347.437347 392.949432,352.019623 392.185974,356.688477 
	C386.238342,354.445129 381.077789,351.335236 375.487854,349.912231 
	C369.654816,348.427307 363.407379,348.575104 357.342438,347.995270 
	C348.765106,347.175262 341.374054,344.042389 335.854248,336.671936 
	C333.474121,330.560699 331.238495,324.778778 329.446869,318.997742 
	C339.244354,319.985382 348.580841,321.524506 357.955841,321.813446 
	C368.706696,322.144836 379.491730,321.367310 390.261932,321.071533 
z"/>
<path fill="#1230A9" opacity="1.000000" stroke="none" 
	d="
M407.861816,162.486923 
	C403.946442,156.747604 400.160217,150.537766 396.223663,144.424774 
	C392.633179,138.849182 389.278687,133.053680 385.109741,127.933563 
	C377.845215,119.011536 367.828094,115.477219 356.557251,114.996758 
	C348.438446,114.650658 340.246094,114.778824 332.224823,113.683113 
	C319.611084,111.960068 309.719086,105.175751 302.057709,95.101334 
	C294.472504,85.127060 284.954498,79.016296 271.032227,79.916229 
	C256.998291,81.558403 245.980545,88.238899 234.578781,94.923172 
	C228.486664,97.367516 222.748764,99.737587 216.611038,102.122971 
	C213.784775,102.410698 211.358322,102.683128 209.152802,102.651169 
	C221.980835,99.811356 231.590302,91.651917 242.314499,84.856995 
	C244.360291,83.750961 246.072235,82.746033 247.792740,81.755966 
	C257.421478,76.215118 267.680603,72.991745 279.201416,73.512634 
	C286.309448,77.290680 293.763031,80.013138 299.797821,84.601662 
	C315.623108,96.634369 332.528809,105.136040 353.166656,105.400780 
	C373.226746,108.606102 389.233307,116.835030 397.807587,136.228043 
	C399.698090,140.503998 403.110626,144.107025 405.822266,148.019928 
	C406.523346,152.699493 407.224396,157.379059 407.861816,162.486923 
z"/>
<path fill="#144BC0" opacity="1.000000" stroke="none" 
	d="
M390.501617,320.827515 
	C379.491730,321.367310 368.706696,322.144836 357.955841,321.813446 
	C348.580841,321.524506 339.244354,319.985382 329.299500,318.696350 
	C327.176453,316.467712 326.002869,314.004272 324.053436,312.704529 
	C313.454987,305.638245 302.665100,298.858978 291.762207,291.682098 
	C291.392822,290.255219 291.202393,289.127197 291.414917,288.000336 
	C294.049194,288.572083 296.269958,289.188171 298.513458,289.705719 
	C312.003113,292.817596 325.498016,295.906830 338.991150,299.003662 
	C345.138367,306.541809 353.746765,307.737366 362.381287,306.736938 
	C372.656860,305.546295 382.775482,303.000854 393.351288,301.029846 
	C399.999908,306.035614 400.001465,307.170227 394.916229,313.330261 
	C393.165222,315.451294 392.112823,318.149139 390.501617,320.827515 
z"/>
<path fill="#0E1DA3" opacity="1.000000" stroke="none" 
	d="
M324.373932,368.789001 
	C322.760956,368.371429 321.579620,367.951569 320.005493,366.986938 
	C307.179626,360.736938 295.034790,354.568817 284.898071,344.629150 
	C283.811981,343.187653 282.763428,342.116425 281.974762,340.879486 
	C277.328674,333.592743 272.743103,326.267395 268.066040,318.586304 
	C265.286774,310.472778 262.578613,302.727966 259.848633,294.612732 
	C257.874878,288.163025 255.922928,282.083801 254.286102,275.874329 
	C256.821838,276.375641 259.017944,277.123657 261.271606,277.598206 
	C262.808624,277.921844 264.426086,277.863403 266.281006,278.237640 
	C267.387482,282.164154 267.980377,285.904205 269.102112,289.478271 
	C271.677216,297.683197 274.510132,305.807190 277.242493,314.299347 
	C277.877960,316.059326 278.509308,317.484039 279.088623,319.238770 
	C279.674500,320.395386 280.312469,321.221985 281.029541,322.395264 
	C284.474762,327.453735 287.840881,332.165558 291.290466,337.200134 
	C297.556488,342.418884 303.739075,347.314911 310.118408,352.484619 
	C312.188416,353.824249 314.009094,354.998291 315.943146,355.939301 
	C334.623322,365.028778 354.766541,368.002502 375.371399,370.055176 
	C375.609406,370.087006 376.089630,370.081421 376.089630,370.081421 
	C366.773804,374.313049 356.980927,373.366760 347.301605,372.363281 
	C339.760376,371.581451 332.301178,370.008209 324.373932,368.789001 
z"/>
<path fill="#0B149F" opacity="1.000000" stroke="none" 
	d="
M283.963196,373.355774 
	C294.097900,374.349030 304.199036,375.689514 314.739929,377.050598 
	C309.426056,384.892609 307.237640,393.564087 308.907593,403.581665 
	C303.312164,406.465637 297.947906,409.537018 292.181549,411.272339 
	C282.043579,414.323242 271.089539,408.886108 273.730713,393.807007 
	C275.121185,385.868652 279.488129,379.868805 283.963196,373.355774 
z"/>
<path fill="#091AAE" opacity="1.000000" stroke="none" 
	d="
M227.983124,395.992676 
	C232.568542,391.708557 236.953018,387.176300 241.817673,383.236969 
	C244.565887,381.011505 248.103790,379.761230 251.643921,378.032776 
	C251.274490,379.781128 250.804352,381.734039 249.777679,383.328644 
	C243.648285,392.848541 241.353485,402.968475 246.814453,413.304047 
	C252.681656,424.408386 262.370850,430.059845 275.569489,430.374420 
	C278.920349,433.614197 281.796722,436.516022 284.745178,439.342712 
	C286.437164,440.964722 288.246094,442.464722 290.002380,444.019714 
	C280.810425,444.215363 271.619049,444.458832 262.426056,444.561829 
	C260.803162,444.579987 259.173706,444.011444 257.229340,443.123901 
	C256.321655,441.571106 255.887695,440.456146 255.118668,439.668304 
	C244.828690,429.126343 237.015076,417.010132 231.627960,403.295929 
	C230.637131,400.773468 229.209244,398.422699 227.983124,395.992676 
z"/>
<path fill="#1C81DD" opacity="1.000000" stroke="none" 
	d="
M208.931870,102.955566 
	C211.358322,102.683128 213.784775,102.410698 216.606949,102.550598 
	C217.300888,105.407066 217.258942,107.953911 217.960144,110.276390 
	C220.202423,117.703079 222.720245,125.046577 225.131683,132.422195 
	C224.822891,132.646530 224.514114,132.870880 223.923508,133.157349 
	C218.527161,134.670792 213.357864,135.955780 208.312363,137.616760 
	C202.414841,139.558228 196.625290,141.827652 190.393738,143.540466 
	C189.665497,141.420227 189.332443,139.714340 189.265289,137.832336 
	C190.035324,136.779083 190.539444,135.901947 191.029358,135.008728 
	C191.015152,134.992661 191.012390,135.035339 191.268433,134.966476 
	C191.697067,134.600418 191.869675,134.303223 192.019470,134.000519 
	C191.996674,133.994995 192.004745,134.041199 192.268707,133.952545 
	C192.765060,133.575226 192.997467,133.286560 193.529846,132.803528 
	C197.198730,126.001312 196.215744,119.263222 190.946533,113.024506 
	C190.576340,112.487679 190.275085,112.244324 189.989609,111.998505 
	C190.005371,111.996025 190.000793,112.027618 189.854401,111.755753 
	C189.131317,111.327583 188.554596,111.171265 187.989594,111.006889 
	C188.001312,110.998825 187.994781,111.026596 187.859192,110.690598 
	C185.153061,109.587509 182.582550,108.820419 179.970062,107.678589 
	C179.999283,105.507317 180.070465,103.710793 180.571640,101.925751 
	C187.724945,102.582161 194.439011,103.375046 201.176300,103.796356 
	C203.733963,103.956299 206.345108,103.261040 208.931870,102.955566 
z"/>
<path fill="#0927BF" opacity="1.000000" stroke="none" 
	d="
M208.943298,395.986786 
	C205.958618,402.379761 202.973953,408.772736 199.973862,415.545929 
	C192.779922,411.466827 185.601410,407.007477 178.178802,401.933411 
	C173.085938,397.448792 168.543030,393.086090 163.308609,389.837646 
	C157.186844,386.038422 150.462189,383.210632 144.390839,379.962219 
	C151.855072,377.633026 158.927567,375.303009 166.344772,372.946014 
	C167.792572,372.620819 168.895660,372.322601 170.035767,372.372437 
	C171.184464,373.873932 172.136887,375.265533 173.438080,376.135529 
	C177.153915,378.620117 180.916138,381.066864 184.833374,383.212097 
	C192.809830,387.580231 200.899979,391.740753 208.943298,395.986786 
z"/>
<path fill="#0F34B5" opacity="1.000000" stroke="none" 
	d="
M376.464355,370.087006 
	C376.089630,370.081421 375.609406,370.087006 375.114685,369.798431 
	C366.535248,366.064362 358.151428,363.176147 350.439301,359.036560 
	C340.101776,353.487915 330.283966,346.970947 320.049164,340.594971 
	C318.459839,338.594299 317.064362,336.868347 316.036774,334.991516 
	C317.644867,334.742279 318.916016,334.418945 320.119965,334.584381 
	C325.423492,335.313019 330.707611,336.182648 335.998779,337.001221 
	C341.374054,344.042389 348.765106,347.175262 357.342438,347.995270 
	C363.407379,348.575104 369.654816,348.427307 375.487854,349.912231 
	C381.077789,351.335236 386.238342,354.445129 391.914490,356.958801 
	C389.567566,364.350922 383.733307,367.850250 376.464355,370.087006 
z"/>
<path fill="#44BAF8" opacity="1.000000" stroke="none" 
	d="
M291.011963,287.999146 
	C291.202393,289.127197 291.392822,290.255219 291.770203,292.078308 
	C294.660248,300.509308 297.363373,308.245270 299.714417,315.963684 
	C297.266876,312.952942 295.171417,309.959686 293.048645,306.583710 
	C290.364410,297.791351 287.707458,289.381744 285.038879,280.553864 
	C282.153473,270.022400 279.480072,259.845551 276.296997,249.830688 
	C275.188568,246.343277 272.820618,243.256180 271.017090,239.615936 
	C263.272858,223.133270 251.643433,210.682816 235.680939,201.854156 
	C226.721024,199.099731 218.221344,195.794205 209.412643,194.044510 
	C194.311020,191.044861 180.211975,193.928665 168.025696,203.536621 
	C167.988266,202.231827 167.961533,201.361084 167.934799,200.490356 
	C174.066452,192.659805 182.822128,189.868347 192.039001,188.054443 
	C195.434937,187.386093 198.895218,187.044708 202.998474,186.661835 
	C207.867310,187.379135 212.162109,187.613403 216.238708,188.680908 
	C223.500687,190.582550 230.630707,192.988098 237.923950,195.504272 
	C244.590057,201.063049 251.632950,205.806442 257.591919,211.654343 
	C266.406342,220.304428 272.830902,230.822952 278.113281,242.377472 
	C280.971893,251.733261 283.966278,260.671204 286.591766,269.716248 
	C288.337769,275.731415 289.556976,281.899506 291.011963,287.999146 
z"/>
<path fill="#2336C3" opacity="1.000000" stroke="none" 
	d="
M143.999084,379.961426 
	C150.462189,383.210632 157.186844,386.038422 163.308609,389.837646 
	C168.543030,393.086090 173.085938,397.448792 177.964661,401.666962 
	C169.343704,399.328705 160.822235,396.061798 152.010452,394.096741 
	C139.927063,391.402100 127.971649,394.307068 116.057701,396.499207 
	C113.687073,396.935425 111.114754,396.275574 108.635445,396.121155 
	C109.152046,393.358948 108.746117,389.771973 110.348106,387.980164 
	C116.619392,380.965759 123.524887,374.518372 130.655273,368.065033 
	C132.054413,369.167694 132.970581,370.090424 133.935547,370.958923 
	C137.280899,373.969940 140.643219,376.962097 143.999084,379.961426 
z"/>
<path fill="#1C81DD" opacity="1.000000" stroke="none" 
	d="
M237.815903,195.182907 
	C230.630707,192.988098 223.500687,190.582550 216.238708,188.680908 
	C212.162109,187.613403 207.867310,187.379135 203.380142,186.538239 
	C215.402313,177.529312 225.398453,167.012238 229.123947,151.345856 
	C230.869934,150.260666 232.541122,149.560638 234.606537,149.157013 
	C238.001816,154.305832 241.002838,159.158249 243.965164,164.366165 
	C239.812042,171.229523 237.438507,178.219116 238.026276,186.479675 
	C237.953217,189.681015 237.884552,192.431961 237.815903,195.182907 
z"/>
<path fill="#0F22A4" opacity="1.000000" stroke="none" 
	d="
M266.007599,277.975800 
	C264.426086,277.863403 262.808624,277.921844 261.271606,277.598206 
	C259.017944,277.123657 256.821838,276.375641 254.023193,275.642212 
	C250.565491,269.572540 248.263702,263.217407 244.610931,257.767792 
	C242.005157,253.880203 237.584015,251.209396 233.972961,247.995605 
	C233.972961,247.995590 234.009201,247.994415 233.942505,247.741516 
	C233.554474,247.324509 233.233139,247.160400 232.911789,246.996292 
	C226.376343,240.517975 218.514252,236.403580 209.576447,233.568466 
	C210.984390,232.770584 212.549774,231.958160 214.056458,232.055389 
	C222.045486,232.570969 230.019745,233.315002 238.217819,234.251266 
	C240.803970,235.698975 243.350006,236.614594 245.509918,238.093964 
	C259.498291,247.674774 263.078552,262.671417 266.007599,277.975800 
z"/>
<path fill="#1B76D4" opacity="1.000000" stroke="none" 
	d="
M237.999115,233.979889 
	C230.019745,233.315002 222.045486,232.570969 214.056458,232.055389 
	C212.549774,231.958160 210.984390,232.770584 209.205521,233.471741 
	C203.117996,235.024918 197.270233,236.265884 191.424271,237.515274 
	C185.060501,238.875336 178.779816,239.966782 172.573547,236.595490 
	C160.111816,229.826187 157.740143,213.979019 167.649872,200.721405 
	C167.961533,201.361084 167.988266,202.231827 167.997452,203.999664 
	C167.978165,207.551407 167.662872,210.251617 168.040802,212.851044 
	C168.797333,218.054459 170.808533,222.624603 176.000610,225.004913 
	C175.999954,224.997223 175.984756,224.999130 176.067169,225.184494 
	C176.435394,225.245941 176.721176,225.122025 177.307755,225.014008 
	C178.394974,225.586029 179.181427,226.142166 180.048645,226.987549 
	C180.426788,227.523148 180.724136,227.769485 181.008148,228.011383 
	C180.994797,228.006958 180.983383,227.981277 181.144409,228.316193 
	C186.801468,232.351303 192.685287,232.100235 197.011551,227.993881 
	C197.005203,228.007095 196.977646,228.017120 197.238586,227.884888 
	C197.677750,227.407883 197.855988,227.063095 198.189209,226.467560 
	C199.258087,225.503845 200.171982,224.790894 201.049591,224.390060 
	C200.668854,225.462814 200.324417,226.223434 199.827454,227.043213 
	C199.789871,227.076172 199.904816,227.049988 200.446747,227.040405 
	C210.578766,226.061996 220.283829,225.066986 230.251877,224.334686 
	C233.343460,225.412643 236.172028,226.227890 238.993317,227.434875 
	C238.657043,229.877686 238.328079,231.928772 237.999115,233.979889 
z"/>
<path fill="#66C2EF" opacity="1.000000" stroke="none" 
	d="
M287.311279,56.815384 
	C296.715027,57.974712 306.118805,59.134037 315.770752,61.025253 
	C316.245575,64.030434 316.613708,66.300079 316.672211,68.577698 
	C316.846893,75.376717 316.900299,82.178864 316.677094,88.861130 
	C310.886353,84.985245 305.427124,81.216896 299.950745,77.473717 
	C293.527130,73.083107 287.444763,67.931328 278.895264,67.742188 
	C278.558929,67.299988 278.299927,67.123306 277.998718,66.585129 
	C276.763947,57.298172 276.764008,57.299885 285.847534,56.972824 
	C286.336700,56.955215 286.823425,56.869431 287.311279,56.815384 
z"/>
<path fill="#2585D3" opacity="1.000000" stroke="none" 
	d="
M165.024490,149.884277 
	C172.768295,151.662506 180.558243,153.267395 188.231354,155.311035 
	C190.993042,156.046570 192.553345,155.994675 194.500671,153.493393 
	C198.935165,147.797409 207.004425,147.180862 212.177933,151.639450 
	C217.478378,156.207443 218.231567,163.607819 213.950607,169.056717 
	C209.617554,174.571899 201.860229,175.540054 196.269745,170.739853 
	C193.840088,168.653625 192.076355,168.979263 189.651138,170.169601 
	C180.715286,174.555481 171.721054,178.822372 162.381165,182.678436 
	C162.012695,181.489578 162.011810,180.756317 162.224197,179.754288 
	C171.195740,175.233139 180.002914,171.076019 188.662277,166.630920 
	C190.042450,165.922455 191.692337,163.798126 191.528107,162.550827 
	C191.352600,161.217972 189.362488,159.524185 187.841324,159.069748 
	C180.284805,156.812378 172.621674,154.911896 164.999207,152.510681 
	C165.009705,151.385193 165.017090,150.634735 165.024490,149.884277 
z"/>
<path fill="#97CEF2" opacity="1.000000" stroke="none" 
	d="
M178.849731,94.802582 
	C190.538574,82.878700 204.873520,75.160088 220.642685,69.174194 
	C221.810333,76.711327 222.429947,83.924118 222.830612,91.399452 
	C218.626053,93.120903 214.742615,95.043617 210.634933,95.948303 
	C199.995972,98.291481 189.379379,97.068787 178.849731,94.802582 
z"/>
<path fill="#0E27B3" opacity="1.000000" stroke="none" 
	d="
M290.416229,444.084625 
	C288.246094,442.464722 286.437164,440.964722 284.745178,439.342712 
	C281.796722,436.516022 278.920349,433.614197 276.012970,430.378052 
	C288.234375,431.060669 297.748322,425.677246 306.103424,417.434753 
	C307.727325,415.832764 309.614655,414.497742 311.730469,413.001160 
	C315.984741,418.467224 319.889038,423.971771 324.192902,430.039612 
	C314.421783,437.513672 303.218506,442.157562 290.416229,444.084625 
z"/>
<path fill="#2954CD" opacity="1.000000" stroke="none" 
	d="
M160.591034,344.808197 
	C165.872894,340.943420 171.154739,337.078644 177.064056,333.281830 
	C185.793747,338.899872 193.895950,344.449921 201.850586,350.301971 
	C196.792175,354.727753 191.881348,358.851593 186.642563,362.980499 
	C185.877487,362.996124 185.440369,363.006683 184.966690,362.667145 
	C176.817108,356.480774 168.704071,350.644470 160.591034,344.808197 
z"/>
<path fill="#1D52B8" opacity="1.000000" stroke="none" 
	d="
M107.987389,244.113831 
	C111.135979,243.959122 114.290268,243.877167 117.431732,243.631378 
	C121.410027,243.320099 125.609123,243.900452 127.622330,238.720428 
	C128.283752,237.018555 131.279968,236.224060 133.818604,234.632065 
	C134.460541,229.516510 135.195450,223.660019 136.342590,217.428650 
	C137.503174,217.369385 138.251541,217.684998 138.999908,218.000610 
	C138.343094,222.769653 137.574036,227.527786 137.108734,232.315445 
	C136.993073,233.505463 137.530075,235.564880 138.329193,235.905380 
	C143.071350,237.925797 144.745148,241.773590 145.244202,246.524246 
	C151.002716,248.315613 156.658844,250.075134 162.654190,252.395630 
	C162.963135,253.760056 162.932846,254.563538 162.508484,255.302582 
	C157.529633,253.866394 152.963593,252.426819 148.351913,251.152390 
	C146.142532,250.541824 144.247101,249.504181 141.839828,252.075195 
	C139.541183,254.530197 139.693680,256.349030 140.474976,259.006775 
	C141.917404,263.913483 143.107498,268.894409 144.008392,273.885803 
	C142.821732,273.955780 142.029358,273.984283 141.236984,274.012787 
	C140.196854,270.540649 139.019608,267.102356 138.151215,263.587799 
	C137.059067,259.167694 136.503555,254.959106 130.501221,253.852173 
	C128.075485,253.404816 126.244377,249.733139 123.881577,247.254913 
	C119.261429,247.254913 113.981827,247.254913 108.360855,246.779205 
	C108.008789,245.573608 107.998093,244.843704 107.987389,244.113831 
z"/>
<path fill="#274ACA" opacity="1.000000" stroke="none" 
	d="
M160.276154,344.903687 
	C168.704071,350.644470 176.817108,356.480774 184.811737,362.970276 
	C179.795151,366.423767 174.896942,369.224060 169.998749,372.024353 
	C168.895660,372.322601 167.792572,372.620819 166.308655,372.600281 
	C164.681534,371.031372 163.539307,369.651428 162.170624,368.553955 
	C156.783020,364.233887 151.324203,360.002686 145.891830,355.738464 
	C150.581650,352.158691 155.271454,348.578918 160.276154,344.903687 
z"/>
<path fill="#5BBFEE" opacity="1.000000" stroke="none" 
	d="
M317.001038,88.979790 
	C316.900299,82.178864 316.846893,75.376717 316.672211,68.577698 
	C316.613708,66.300079 316.245575,64.030434 316.036102,61.298935 
	C322.576904,63.007984 329.100616,65.175240 335.815765,68.108032 
	C335.992706,77.969170 335.978149,87.064766 335.554443,96.124619 
	C329.097229,93.719170 323.049133,91.349480 317.001038,88.979790 
z"/>
<path fill="#2A5ED1" opacity="1.000000" stroke="none" 
	d="
M201.998169,350.000000 
	C193.895950,344.449921 185.793747,338.899872 177.398087,333.199677 
	C182.814560,329.002075 188.524460,324.954620 194.620483,321.170654 
	C201.671982,325.956543 208.337387,330.478882 214.999512,335.249084 
	C214.996262,335.496948 214.989807,335.992706 214.720337,336.184235 
	C210.626831,340.911194 206.802780,345.446655 202.733734,349.987976 
	C202.488739,349.993866 201.998169,350.000000 201.998169,350.000000 
z"/>
<path fill="#1551C2" opacity="1.000000" stroke="none" 
	d="
M402.924500,276.687378 
	C401.049133,277.931824 399.302551,278.844116 397.239258,279.868530 
	C395.892792,279.729584 394.803009,279.119965 393.842346,279.280914 
	C378.836914,281.795258 371.207367,278.180725 363.409332,264.037384 
	C365.696075,263.280945 367.824860,263.166901 369.948944,262.994385 
	C373.974487,262.667328 377.997314,262.306763 382.021271,261.960144 
	C390.708221,268.880219 400.500061,268.902618 410.702881,266.645416 
	C412.611023,266.223236 414.614136,266.230347 417.052124,266.044556 
	C414.446289,267.415222 411.103516,268.401154 408.359741,270.267609 
	C406.206818,271.732117 404.794556,274.285522 402.924500,276.687378 
z"/>
<path fill="#83C9F1" opacity="1.000000" stroke="none" 
	d="
M286.951385,56.567688 
	C286.823425,56.869431 286.336700,56.955215 285.847534,56.972824 
	C276.764008,57.299885 276.763947,57.298172 277.558990,66.592972 
	C273.070770,67.636169 268.763214,67.572929 265.026611,69.002296 
	C257.228699,71.985229 249.732422,75.756615 242.078751,78.772842 
	C241.034531,72.935196 240.023758,67.528786 239.013000,62.122364 
	C254.603882,57.985653 270.389374,55.444710 286.951385,56.567688 
z"/>
<path fill="#2269C4" opacity="1.000000" stroke="none" 
	d="
M139.168579,217.637405 
	C138.251541,217.684998 137.503174,217.369385 136.449402,217.031189 
	C136.156876,215.523804 136.080917,214.031998 136.196976,212.555298 
	C136.988220,202.487930 137.190521,202.288483 130.246429,195.732285 
	C128.776123,194.344101 125.365730,195.010773 122.414078,194.292419 
	C121.981117,192.991135 121.983292,192.128128 121.985458,191.265121 
	C126.338852,191.110443 131.011353,191.582825 132.489624,185.835297 
	C132.559265,185.564545 132.910599,185.247375 133.192062,185.167328 
	C140.812027,183.000046 139.875305,176.546188 140.914215,170.419525 
	C142.231949,170.010986 143.037857,170.008621 143.896622,170.425415 
	C143.716156,173.151169 143.827744,175.561234 143.173737,177.741653 
	C142.013351,181.610458 143.918228,183.870819 146.970123,185.072510 
	C148.386322,185.630157 150.515976,184.882584 152.151489,184.270569 
	C155.499039,183.017899 158.731232,181.457016 162.010941,180.023056 
	C162.011810,180.756317 162.012695,181.489578 162.012726,182.589584 
	C160.183975,183.937866 158.435257,185.128403 156.511658,185.857513 
	C152.490784,187.381531 149.434540,189.077545 149.607162,194.410400 
	C149.674194,196.481506 147.272812,199.907410 145.311417,200.518219 
	C140.412445,202.043823 140.474258,205.656784 140.063385,209.345032 
	C139.769592,211.982330 139.575729,214.630737 139.168579,217.637405 
z"/>
<path fill="#215ABC" opacity="1.000000" stroke="none" 
	d="
M162.902557,255.367004 
	C162.932846,254.563538 162.963135,253.760056 162.992935,252.554443 
	C172.372925,254.898651 181.792953,257.519989 191.109818,260.467468 
	C193.909515,261.353180 195.413040,261.072815 197.274292,258.569794 
	C201.283997,253.177505 208.276138,251.347534 214.207306,253.492249 
	C220.343414,255.711060 223.862717,260.993439 223.463654,268.589355 
	C213.373093,268.000732 203.811020,267.001740 194.068756,265.667114 
	C183.559891,262.009979 173.231216,258.688477 162.902557,255.367004 
z"/>
<path fill="#0812AB" opacity="1.000000" stroke="none" 
	d="
M227.690338,396.133972 
	C229.209244,398.422699 230.637131,400.773468 231.627960,403.295929 
	C237.015076,417.010132 244.828690,429.126343 255.118668,439.668304 
	C255.887695,440.456146 256.321655,441.571106 256.911499,442.896271 
	C252.129105,441.992432 247.346542,440.726349 242.124603,438.930542 
	C232.983261,431.215118 226.873779,422.428436 224.842514,411.123932 
	C224.239639,407.768707 223.639236,404.412994 223.037704,401.057526 
	C224.490997,399.463409 225.944290,397.869324 227.690338,396.133972 
z"/>
<path fill="#1A72D2" opacity="1.000000" stroke="none" 
	d="
M234.021393,248.350281 
	C237.584015,251.209396 242.005157,253.880203 244.610931,257.767792 
	C248.263702,263.217407 250.565491,269.572540 253.708069,275.772430 
	C255.922928,282.083801 257.874878,288.163025 259.485413,294.610687 
	C256.932526,293.987549 254.679794,293.077850 252.517715,291.988220 
	C247.329208,289.373352 242.183273,286.673981 237.158310,283.674500 
	C237.242401,281.573029 237.188339,279.805817 237.134277,278.038574 
	C237.504532,276.545929 237.874786,275.053284 238.547653,273.081360 
	C238.963699,272.380005 239.000412,272.145905 238.960388,271.899750 
	C239.747330,263.658508 239.419815,255.652267 234.021393,248.350281 
z"/>
<path fill="#50BBEE" opacity="1.000000" stroke="none" 
	d="
M335.963623,96.160370 
	C335.978149,87.064766 335.992706,77.969170 336.015564,68.399315 
	C342.255096,71.361427 348.486359,74.797791 354.870453,79.002876 
	C355.015564,81.567696 355.098419,83.369690 354.982361,85.158768 
	C354.682343,89.783379 354.294525,94.402290 353.495789,99.026459 
	C347.354370,98.073074 341.658997,97.116722 335.963623,96.160370 
z"/>
<path fill="#2440C6" opacity="1.000000" stroke="none" 
	d="
M145.562805,355.845276 
	C151.324203,360.002686 156.783020,364.233887 162.170624,368.553955 
	C163.539307,369.651428 164.681534,371.031372 165.963943,372.627258 
	C158.927567,375.303009 151.855072,377.633026 144.390839,379.962219 
	C140.643219,376.962097 137.280899,373.969940 133.935547,370.958923 
	C132.970581,370.090424 132.054413,369.167694 130.975113,367.929810 
	C135.634155,363.710541 140.433960,359.831299 145.562805,355.845276 
z"/>
<path fill="#207BDA" opacity="1.000000" stroke="none" 
	d="
M188.999390,138.008438 
	C189.332443,139.714340 189.665497,141.420227 189.998856,143.505066 
	C183.806396,143.767258 177.382462,144.652237 171.477203,143.289566 
	C163.428970,141.432358 159.176132,132.754181 160.517242,124.531319 
	C162.078033,114.961517 167.200394,107.362831 173.992767,100.106041 
	C176.482742,100.610519 178.312195,101.262390 180.141663,101.914268 
	C180.070465,103.710793 179.999283,105.507317 179.657318,107.811005 
	C177.924988,109.220657 176.463409,110.123131 174.999603,111.011856 
	C174.997360,110.998093 175.022812,111.009300 174.668274,111.022919 
	C173.877548,111.524841 173.441360,112.013138 172.802429,112.746964 
	C166.348312,119.095192 165.236725,126.734276 169.859497,133.238342 
	C170.352173,133.656631 170.672485,133.844757 170.996918,134.014282 
	C171.001038,133.995667 170.965607,134.009811 171.036545,134.264282 
	C171.401047,134.689743 171.694611,134.860733 171.987106,135.012650 
	C171.986038,134.993576 171.961426,135.023361 171.982910,135.385895 
	C176.455963,140.573776 180.905807,141.165527 188.999390,138.008438 
z"/>
<path fill="#2C67D3" opacity="1.000000" stroke="none" 
	d="
M215.002777,335.001221 
	C208.337387,330.478882 201.671982,325.956543 194.956818,321.063629 
	C200.006332,317.101105 205.105621,313.509155 210.706512,310.104858 
	C215.799484,313.192566 220.390869,316.092590 224.988251,319.244171 
	C224.995300,319.663422 224.996338,319.831085 224.723068,320.199951 
	C221.300079,325.267853 218.151428,330.134521 215.002777,335.001221 
z"/>
<path fill="#2372C9" opacity="1.000000" stroke="none" 
	d="
M143.843781,170.006256 
	C143.037857,170.008621 142.231949,170.010986 141.124893,170.025238 
	C140.899521,168.231552 140.861435,166.412506 141.073242,164.623047 
	C141.623810,159.971588 142.669205,155.705154 137.237137,152.369888 
	C133.845291,150.287323 134.151276,145.593857 135.862549,141.892441 
	C137.711166,137.893967 141.164948,136.029434 145.516998,136.220490 
	C150.019348,136.418121 153.478333,139.337265 153.694824,143.285172 
	C153.954117,148.013397 157.385376,147.508514 159.785431,148.758423 
	C161.124924,149.455963 162.822250,149.466385 164.691406,149.835358 
	C165.017090,150.634735 165.009705,151.385193 164.734894,152.533081 
	C164.299103,152.876480 164.130737,152.822464 163.759094,152.569092 
	C163.184875,152.315048 162.813950,152.260330 162.052490,152.189484 
	C158.834259,152.003845 155.325897,150.690582 153.312256,151.888931 
	C148.194763,154.934494 142.884933,158.539398 144.566513,166.150696 
	C144.826035,167.325317 144.109131,168.715668 143.843781,170.006256 
z"/>
<path fill="#8CCBF1" opacity="1.000000" stroke="none" 
	d="
M238.649170,62.205032 
	C240.023758,67.528786 241.034531,72.935196 242.058014,78.985199 
	C242.070755,79.628792 242.018890,80.055763 241.697052,80.171616 
	C235.266663,83.903946 229.158112,87.520424 223.049561,91.136902 
	C222.429947,83.924118 221.810333,76.711327 221.008087,69.107750 
	C226.645416,66.573868 232.465378,64.430786 238.649170,62.205032 
z"/>
<path fill="#6589D1" opacity="1.000000" stroke="none" 
	d="
M222.830627,91.399445 
	C229.158112,87.520424 235.266663,83.903946 241.690887,80.579590 
	C241.999252,82.236130 241.991943,83.600540 241.984619,84.964958 
	C231.590302,91.651917 221.980835,99.811356 209.152802,102.651169 
	C206.345108,103.261040 203.733963,103.956299 201.176300,103.796356 
	C194.439011,103.375046 187.724945,102.582161 180.571655,101.925751 
	C178.312195,101.262390 176.482742,100.610519 174.275803,99.925980 
	C175.364349,98.311974 176.830353,96.730621 178.573059,94.975922 
	C189.379379,97.068787 199.995972,98.291481 210.634933,95.948303 
	C214.742615,95.043617 218.626053,93.120903 222.830627,91.399445 
z"/>
<path fill="#44B6ED" opacity="1.000000" stroke="none" 
	d="
M353.941803,99.023483 
	C354.294525,94.402290 354.682343,89.783379 354.982361,85.158768 
	C355.098419,83.369690 355.015564,81.567696 355.043091,79.288544 
	C368.084076,87.216728 378.500061,98.252274 387.091858,111.311462 
	C385.833313,111.286934 384.760559,110.926582 383.851440,110.320724 
	C374.794006,104.284523 364.822449,100.917778 353.993347,99.738846 
	C353.982147,99.500000 353.941803,99.023483 353.941803,99.023483 
z"/>
<path fill="#2372C9" opacity="1.000000" stroke="none" 
	d="
M354.004578,99.977692 
	C364.822449,100.917778 374.794006,104.284523 383.851440,110.320724 
	C384.760559,110.926582 385.833313,111.286934 387.210632,111.633308 
	C387.591125,111.505394 387.629181,111.560707 387.491699,111.897385 
	C387.964447,112.811234 388.574677,113.388412 389.184937,113.965591 
	C396.601471,124.135651 402.824982,134.905548 405.870911,147.634308 
	C403.110626,144.107025 399.698090,140.503998 397.807587,136.228043 
	C389.233307,116.835030 373.226746,108.606102 353.460968,105.136497 
	C353.644287,103.070503 353.824432,101.524101 354.004578,99.977692 
z"/>
<path fill="#3172D7" opacity="1.000000" stroke="none" 
	d="
M224.982254,318.992615 
	C220.390869,316.092590 215.799484,313.192566 211.033646,309.978394 
	C219.460785,302.534973 227.804443,295.161377 233.324142,285.210724 
	C234.528900,283.038788 235.537796,280.758179 236.885590,278.283081 
	C237.188339,279.805817 237.242401,281.573029 237.150497,284.085022 
	C235.339493,290.887329 233.674469,296.944885 231.964828,303.367676 
	C229.607559,308.819489 227.294907,313.906067 224.982254,318.992615 
z"/>
<path fill="#1D52B8" opacity="1.000000" stroke="none" 
	d="
M194.248932,266.002747 
	C203.811020,267.001740 213.373093,268.000732 223.392029,269.002869 
	C222.696960,279.816437 212.727188,285.494446 202.525146,281.349365 
	C200.848267,280.668060 198.728134,281.077667 196.256439,280.813049 
	C194.788742,280.424377 193.877487,280.205750 193.124115,279.707458 
	C194.346603,278.448181 195.411209,277.468536 195.733475,277.172028 
	C195.170441,272.935944 194.709686,269.469330 194.248932,266.002747 
z"/>
<path fill="#215ABC" opacity="1.000000" stroke="none" 
	d="
M125.753601,170.633789 
	C122.744026,173.988983 119.209465,175.942474 115.417923,173.871399 
	C112.807747,172.445618 110.171936,169.782440 109.132767,167.065918 
	C107.573349,162.989395 109.508919,159.210846 113.419868,157.006409 
	C117.267914,154.837433 121.159912,155.159882 124.414383,158.197678 
	C128.176559,161.709366 128.521072,165.892685 125.753601,170.633789 
z"/>
<path fill="#0927BF" opacity="1.000000" stroke="none" 
	d="
M222.874496,401.350800 
	C223.639236,404.412994 224.239639,407.768707 224.842514,411.123932 
	C226.873779,422.428436 232.983261,431.215118 241.837067,438.700165 
	C235.849640,436.350922 229.710373,433.702332 223.268250,430.482422 
	C220.326614,424.605408 217.687820,419.299774 215.049042,413.994110 
	C217.603119,409.877441 220.157196,405.760773 222.874496,401.350800 
z"/>
<path fill="#0F22A4" opacity="1.000000" stroke="none" 
	d="
M163.796890,313.017914 
	C165.266449,318.721741 163.329620,323.400391 158.647736,325.456207 
	C154.320862,327.356140 148.950333,325.722137 146.362076,321.718262 
	C143.536133,317.346741 144.594116,312.453247 149.851776,308.308411 
	C154.867859,309.998077 159.332382,311.507996 163.796890,313.017914 
z"/>
<path fill="#1A36A9" opacity="1.000000" stroke="none" 
	d="
M163.761322,312.623047 
	C159.332382,311.507996 154.867859,309.998077 150.186691,308.207397 
	C147.498322,298.451477 145.029510,288.975555 142.552032,279.501892 
	C142.139038,277.922668 141.688400,276.353302 141.246063,274.396057 
	C142.029358,273.984283 142.821732,273.955780 144.197235,274.200195 
	C147.418854,283.877686 150.026276,293.291168 152.709015,302.683075 
	C154.035507,307.326935 160.143539,309.123352 163.710800,305.977631 
	C169.797546,300.610168 175.871872,295.228638 182.069763,290.149536 
	C182.481308,291.012238 182.774506,291.578339 183.067703,292.144470 
	C177.539841,297.467407 171.970413,302.748383 166.517670,308.147186 
	C165.367584,309.285889 164.645218,310.856567 163.761322,312.623047 
z"/>
<path fill="#1D52B8" opacity="1.000000" stroke="none" 
	d="
M121.524536,191.191559 
	C121.983292,192.128128 121.981117,192.991135 121.983963,194.177643 
	C119.341255,194.638275 116.694771,194.810196 114.045525,194.903824 
	C110.662254,195.023407 107.462906,194.681396 104.527054,197.649078 
	C103.406105,198.782150 99.076714,198.127502 97.231186,196.832031 
	C94.473602,194.896362 94.392921,191.129028 97.166824,189.131561 
	C99.022530,187.795273 103.683907,187.058609 104.441208,188.058868 
	C107.895195,192.620956 112.373375,191.023849 116.585938,191.220886 
	C118.073639,191.290466 119.570786,191.158127 121.524536,191.191559 
z"/>
<path fill="#2269C4" opacity="1.000000" stroke="none" 
	d="
M129.121521,105.715881 
	C135.722031,104.300728 139.413361,106.274315 139.980728,111.126785 
	C140.490112,115.483368 137.533463,119.618378 133.307251,119.161690 
	C130.773849,118.887924 127.696228,117.040070 126.237297,114.943512 
	C123.899902,111.584579 125.713516,108.330635 129.121521,105.715881 
z"/>
<path fill="#1A36A9" opacity="1.000000" stroke="none" 
	d="
M65.450775,223.422333 
	C64.996391,219.092300 66.467812,215.680847 70.429695,215.187042 
	C72.940262,214.874130 76.729065,216.008286 78.099571,217.859436 
	C79.442924,219.673920 79.431839,223.738373 78.286880,225.899811 
	C75.524101,231.115295 68.531807,229.768509 65.450775,223.422333 
z"/>
<path fill="#1230A9" opacity="1.000000" stroke="none" 
	d="
M123.170914,285.907837 
	C126.969948,287.524445 129.118408,290.290192 127.914146,293.851654 
	C127.128532,296.175079 124.856499,298.878510 122.664162,299.580109 
	C120.712280,300.204742 117.058266,298.997009 115.792252,297.344238 
	C114.394379,295.519287 114.003464,292.003784 114.712883,289.698090 
	C115.793976,286.184326 119.075485,284.991302 123.170914,285.907837 
z"/>
<path fill="#1A36A9" opacity="1.000000" stroke="none" 
	d="
M107.688889,243.930618 
	C107.998093,244.843704 108.008789,245.573608 108.018219,246.668488 
	C107.457062,247.625778 106.910637,248.231491 106.335037,248.808075 
	C103.397278,251.750992 99.623299,251.988510 97.159042,249.394730 
	C94.732445,246.840546 95.013596,242.799988 97.770348,240.609543 
	C100.710396,238.273453 104.033279,238.926987 106.751488,242.409561 
	C107.048424,242.789978 107.181374,243.298386 107.688889,243.930618 
z"/>
<path fill="#0812AB" opacity="1.000000" stroke="none" 
	d="
M214.760727,414.191956 
	C217.687820,419.299774 220.326614,424.605408 222.978210,430.264587 
	C219.064728,428.349335 215.138443,426.080597 211.041809,423.519592 
	C212.071762,420.281494 213.272095,417.335663 214.760727,414.191956 
z"/>
<path fill="#215ABC" opacity="1.000000" stroke="none" 
	d="
M95.740532,137.262390 
	C96.545563,135.190674 97.178673,132.984940 98.642021,131.919281 
	C99.267014,131.464142 102.258125,133.035263 102.985802,134.345535 
	C103.530632,135.326599 102.369461,138.570007 101.624260,138.691086 
	C99.824898,138.983459 97.824249,138.036972 95.740532,137.262390 
z"/>
<path fill="#1D52B8" opacity="1.000000" stroke="none" 
	d="
M83.794983,174.793488 
	C81.846413,176.071091 80.046059,177.293777 78.087151,177.653839 
	C77.564934,177.749832 75.886040,175.164703 75.961472,173.882492 
	C76.036621,172.605194 77.432617,170.685562 78.628113,170.333557 
	C81.806953,169.397568 83.569756,171.186493 83.794983,174.793488 
z"/>
<path fill="#1A36A9" opacity="1.000000" stroke="none" 
	d="
M83.544365,271.482971 
	C84.436440,273.620544 85.362251,275.590881 85.294739,277.526550 
	C85.275955,278.065247 82.042908,279.240417 80.784393,278.774170 
	C79.555725,278.318970 77.926353,275.323303 78.285461,274.865875 
	C79.487350,273.334900 81.500328,272.440674 83.544365,271.482971 
z"/>
<path fill="#113CB7" opacity="1.000000" stroke="none" 
	d="
M183.383057,292.003448 
	C182.774506,291.578339 182.481308,291.012238 182.208679,289.846252 
	C185.808243,286.159973 189.387238,283.073578 192.966232,279.987152 
	C193.877487,280.205750 194.788742,280.424377 195.894897,280.944824 
	C191.959351,284.785278 187.828873,288.323853 183.383057,292.003448 
z"/>
<path fill="#44B6ED" opacity="1.000000" stroke="none" 
	d="
M389.131927,113.670906 
	C388.574677,113.388412 387.964447,112.811234 387.506226,111.927635 
	C388.131805,112.206215 388.605377,112.791214 389.131927,113.670906 
z"/>
<path fill="#1A72D2" opacity="1.000000" stroke="none" 
	d="
M232.994446,247.259064 
	C233.233139,247.160400 233.554474,247.324509 233.940689,247.759552 
	C233.696060,247.860947 233.386581,247.691406 232.994446,247.259064 
z"/>
<path fill="#3172D7" opacity="1.000000" stroke="none" 
	d="
M238.812485,272.027649 
	C239.000412,272.145905 238.963699,272.380005 238.741394,272.743988 
	C238.464386,272.634644 238.475082,272.391174 238.812485,272.027649 
z"/>
<path fill="#2198E4" opacity="1.000000" stroke="none" 
	d="
M407.711243,169.716766 
	C407.334869,169.739487 407.274445,169.499344 407.577332,169.131836 
	C407.699738,169.051163 407.786346,169.500595 407.711243,169.716766 
z"/>
<path fill="#1F90E2" opacity="1.000000" stroke="none" 
	d="
M234.932983,94.848900 
	C245.980545,88.238899 256.998291,81.558403 270.578796,79.961823 
	C271.478516,94.118858 276.260345,106.957802 282.796906,119.286316 
	C284.010559,121.575417 284.916443,124.027695 285.943604,126.798042 
	C272.252441,124.293587 258.584503,124.641525 244.466278,126.839722 
	C243.539261,124.720634 243.085510,122.977638 242.585526,121.248016 
	C240.041260,112.446411 237.485031,103.648262 234.932983,94.848900 
z"/>
<path fill="#185EC5" opacity="1.000000" stroke="none" 
	d="
M344.858002,208.095581 
	C341.250275,197.603073 338.004700,186.968262 333.950439,176.651230 
	C327.784058,160.959335 319.091888,146.900543 305.143494,136.294983 
	C310.187134,138.761139 315.701141,141.053894 320.456177,144.419083 
	C329.939880,151.130798 337.557007,159.786469 344.171204,169.988647 
	C344.492950,170.776855 344.714050,170.947556 344.991333,171.045547 
	C344.991333,171.045547 344.988068,170.992096 344.974487,171.311386 
	C345.299744,172.097214 345.638519,172.563766 345.977325,173.030319 
	C345.977325,173.030319 346.000824,172.998428 346.006165,173.346405 
	C346.996033,175.136749 347.980530,176.579102 348.965027,178.021454 
	C348.965027,178.021454 348.998779,178.000000 348.970459,178.319702 
	C349.283936,179.100037 349.625763,179.560654 349.967590,180.021271 
	C349.967590,180.021271 350.000000,180.000000 349.969238,180.319092 
	C350.280548,181.098663 350.622681,181.559143 350.964783,182.019608 
	C350.964783,182.019608 350.998779,181.999390 350.960510,182.397949 
	C353.949951,191.531845 356.977661,200.267181 359.576355,209.001434 
	C354.384186,208.698746 349.621094,208.397156 344.858002,208.095581 
z"/>
<path fill="#6589D1" opacity="1.000000" stroke="none" 
	d="
M345.993286,172.706238 
	C345.638519,172.563766 345.299744,172.097214 344.952576,171.326752 
	C345.115326,171.028778 345.286438,171.034729 345.713013,171.064224 
	C345.982117,171.519226 345.995697,171.950684 345.993286,172.706238 
z"/>
<path fill="#6589D1" opacity="1.000000" stroke="none" 
	d="
M344.902863,170.851776 
	C344.714050,170.947556 344.492950,170.776855 344.245972,170.341949 
	C344.449890,170.230881 344.666748,170.400055 344.902863,170.851776 
z"/>
<path fill="#6589D1" opacity="1.000000" stroke="none" 
	d="
M360.005402,209.002518 
	C356.977661,200.267181 353.949951,191.531845 350.945251,182.408905 
	C354.619812,190.875900 358.535065,199.633881 361.827667,208.619980 
	C363.925812,214.346344 365.101074,220.410843 366.858459,226.678284 
	C368.348297,232.430695 369.669830,237.828583 370.672974,243.441315 
	C369.383423,241.020554 368.246307,238.432739 367.471527,235.740662 
	C364.912323,226.848236 362.483978,217.918152 360.005402,209.002518 
z"/>
<path fill="#6589D1" opacity="1.000000" stroke="none" 
	d="
M348.951263,177.677643 
	C347.980530,176.579102 346.996033,175.136749 345.987122,173.351990 
	C346.954315,174.451004 347.945892,175.892410 348.951263,177.677643 
z"/>
<path fill="#6589D1" opacity="1.000000" stroke="none" 
	d="
M349.962738,179.718979 
	C349.625763,179.560654 349.283936,179.100037 348.955139,178.331055 
	C349.298065,178.487350 349.627960,178.952026 349.962738,179.718979 
z"/>
<path fill="#6589D1" opacity="1.000000" stroke="none" 
	d="
M350.960388,181.717316 
	C350.622681,181.559143 350.280548,181.098663 349.952820,180.328827 
	C350.296814,180.484634 350.626373,180.949814 350.960388,181.717316 
z"/>
<path fill="#196CCF" opacity="1.000000" stroke="none" 
	d="
M356.918579,264.660522 
	C348.333191,263.988831 339.614441,262.992645 330.343536,261.736877 
	C329.524475,260.986572 329.257599,260.495880 328.849915,259.703308 
	C324.521545,255.954651 320.829071,251.414093 316.058716,249.254730 
	C297.649017,240.921448 291.266968,225.652863 290.341919,207.041260 
	C304.252014,214.668564 318.320923,221.008484 333.596832,224.271423 
	C335.314972,224.638412 337.235840,224.056580 339.062683,223.914734 
	C344.970215,237.388519 350.877716,250.862289 356.918579,264.660522 
z"/>
<path fill="#1A72D2" opacity="1.000000" stroke="none" 
	d="
M339.019409,223.548645 
	C337.235840,224.056580 335.314972,224.638412 333.596832,224.271423 
	C318.320923,221.008484 304.252014,214.668564 290.066833,206.795227 
	C286.025452,198.142059 283.638275,189.143753 278.987305,181.527954 
	C269.623962,166.195831 249.621704,167.355392 240.938339,183.011551 
	C240.283676,184.191940 239.014297,185.031372 238.030670,186.029297 
	C237.438507,178.219116 239.812042,171.229523 244.265106,164.217438 
	C249.249847,159.258667 253.993927,154.987900 261.254333,154.977676 
	C261.503082,154.983337 262.000519,154.996246 262.034821,155.344025 
	C264.405792,158.654175 266.564026,161.780518 269.109985,164.550522 
	C280.183777,176.598831 293.097565,186.343964 307.676514,193.679825 
	C313.792633,196.757294 320.530365,198.599472 327.136536,201.307022 
	C329.480072,204.714432 331.672485,207.818054 333.864929,210.921692 
	C335.568634,215.008652 337.272369,219.095612 339.019409,223.548645 
z"/>
<path fill="#1F8EE2" opacity="1.000000" stroke="none" 
	d="
M333.913086,210.543701 
	C331.672485,207.818054 329.480072,204.714432 327.006714,200.989655 
	C323.135712,195.214661 319.934448,189.729019 315.877258,184.973679 
	C306.473724,173.952087 296.349915,163.501556 282.587250,157.982300 
	C276.145203,155.398849 269.397766,152.201157 262.000519,154.996246 
	C262.000519,154.996246 261.503082,154.983337 261.215515,154.630112 
	C258.289215,149.899460 255.650452,145.522018 253.011688,141.144592 
	C264.795837,138.240997 276.542450,137.012115 288.177734,141.842804 
	C297.702972,145.797424 304.971375,152.568146 310.788452,160.803879 
	C321.419495,175.855194 328.417969,192.686752 333.913086,210.543701 
z"/>
<path fill="#1656C2" opacity="1.000000" stroke="none" 
	d="
M359.576355,209.001434 
	C362.483978,217.918152 364.912323,226.848236 367.471527,235.740662 
	C368.246307,238.432739 369.383423,241.020554 370.662903,243.841202 
	C370.971191,244.026276 370.996399,244.005219 370.951416,244.349670 
	C371.266144,245.472961 371.625824,246.251831 371.985535,247.030701 
	C371.985535,247.030685 372.001251,246.995499 371.977234,247.343521 
	C372.607178,248.439880 373.261139,249.188217 373.915100,249.936554 
	C376.515900,253.746872 379.116699,257.557190 381.869385,261.663818 
	C377.997314,262.306763 373.974487,262.667328 369.948944,262.994385 
	C367.824860,263.166901 365.696075,263.280945 363.276031,263.722778 
	C359.036224,253.667969 354.760498,243.421860 351.251770,232.919479 
	C348.632660,225.079926 347.004303,216.909348 344.896362,208.490875 
	C349.621094,208.397156 354.384186,208.698746 359.576355,209.001434 
z"/>
<path fill="#1D89E0" opacity="1.000000" stroke="none" 
	d="
M234.578781,94.923172 
	C237.485031,103.648262 240.041260,112.446411 242.585526,121.248016 
	C243.085510,122.977638 243.539261,124.720634 244.033112,126.873154 
	C238.006531,128.933685 231.961151,130.578506 225.523743,132.322754 
	C222.720245,125.046577 220.202423,117.703079 217.960144,110.276390 
	C217.258942,107.953911 217.300888,105.407066 217.006760,102.535294 
	C222.748764,99.737587 228.486664,97.367516 234.578781,94.923172 
z"/>
<path fill="#1D89E0" opacity="1.000000" stroke="none" 
	d="
M252.639984,141.143188 
	C255.650452,145.522018 258.289215,149.899460 260.966797,154.624451 
	C253.993927,154.987900 249.249847,159.258667 244.303802,163.861969 
	C241.002838,159.158249 238.001816,154.305832 234.941589,149.068710 
	C240.677689,146.169937 246.472992,143.655853 252.639984,141.143188 
z"/>
<path fill="#6589D1" opacity="1.000000" stroke="none" 
	d="
M373.887817,249.624268 
	C373.261139,249.188217 372.607178,248.439880 371.958252,247.346832 
	C372.595734,247.772079 373.228149,248.542038 373.887817,249.624268 
z"/>
<path fill="#6589D1" opacity="1.000000" stroke="none" 
	d="
M371.999878,246.687729 
	C371.625824,246.251831 371.266144,245.472961 370.937134,244.350922 
	C371.316589,244.786728 371.665405,245.565750 371.999878,246.687729 
z"/>
<path fill="#1551C2" opacity="1.000000" stroke="none" 
	d="
M328.990692,260.005188 
	C329.257599,260.495880 329.524475,260.986572 329.900543,261.734985 
	C331.007141,266.590515 332.245087,271.151947 332.947937,275.794403 
	C334.118317,283.524963 333.758331,291.606262 338.838562,298.687500 
	C325.498016,295.906830 312.003113,292.817596 298.513458,289.705719 
	C296.269958,289.188171 294.049194,288.572083 291.414917,288.000336 
	C289.556976,281.899506 288.337769,275.731415 286.591766,269.716248 
	C283.966278,260.671204 280.971893,251.733261 278.482788,242.381958 
	C281.699036,243.252304 284.503845,244.670853 287.445374,245.697876 
	C301.273254,250.525848 315.138672,255.246353 328.990692,260.005188 
z"/>
<path fill="#1153CE" opacity="1.000000" stroke="none" 
	d="
M214.999512,335.249084 
	C218.151428,330.134521 221.300079,325.267853 225.042999,320.340454 
	C243.078903,329.951172 261.015961,338.518372 280.095764,344.492004 
	C281.642426,344.976227 283.397461,344.794922 285.055664,344.922913 
	C295.034790,354.568817 307.179626,360.736938 319.808746,366.730164 
	C313.695709,365.697815 307.442535,363.884338 301.065735,363.162201 
	C288.727661,361.764984 276.319977,360.982635 263.403564,359.571167 
	C262.543457,358.844513 262.288361,358.349823 261.888611,358.160309 
	C246.263885,350.753784 230.625992,343.375061 214.989807,335.992706 
	C214.989807,335.992706 214.996262,335.496948 214.999512,335.249084 
z"/>
<path fill="#0F49CB" opacity="1.000000" stroke="none" 
	d="
M214.720337,336.184235 
	C230.625992,343.375061 246.263885,350.753784 261.888611,358.160309 
	C262.288361,358.349823 262.543457,358.844513 262.937012,359.535126 
	C254.243851,362.551605 245.479706,365.229828 236.042938,367.796570 
	C234.546036,367.152832 233.753326,366.562164 232.892700,366.097290 
	C222.927338,360.714569 212.951691,355.350861 202.978760,349.982117 
	C206.802780,345.446655 210.626831,340.911194 214.720337,336.184235 
z"/>
<path fill="#0B33C3" opacity="1.000000" stroke="none" 
	d="
M170.035767,372.372437 
	C174.896942,369.224060 179.795151,366.423767 184.848297,363.320312 
	C185.440369,363.006683 185.877487,362.996124 186.996948,363.023987 
	C198.448059,369.039062 209.216858,375.015686 219.985657,380.992310 
	C216.420334,385.795288 212.855011,390.598267 209.116486,395.694000 
	C200.899979,391.740753 192.809830,387.580231 184.833374,383.212097 
	C180.916138,381.066864 177.153915,378.620117 173.438080,376.135529 
	C172.136887,375.265533 171.184464,373.873932 170.035767,372.372437 
z"/>
<path fill="#0D3EC7" opacity="1.000000" stroke="none" 
	d="
M220.283020,380.842987 
	C209.216858,375.015686 198.448059,369.039062 187.324890,363.018921 
	C191.881348,358.851593 196.792175,354.727753 201.850586,350.301971 
	C201.998169,350.000000 202.488739,349.993866 202.733749,349.987976 
	C212.951691,355.350861 222.927338,360.714569 232.892700,366.097290 
	C233.753326,366.562164 234.546036,367.152832 235.683640,367.841553 
	C230.858109,372.229889 225.719238,376.461761 220.283020,380.842987 
z"/>
<path fill="#113CB7" opacity="1.000000" stroke="none" 
	d="
M300.066498,315.981201 
	C297.363373,308.245270 294.660248,300.509308 291.949158,292.377136 
	C302.665100,298.858978 313.454987,305.638245 324.053436,312.704529 
	C326.002869,314.004272 327.176453,316.467712 328.855499,318.695435 
	C331.238495,324.778778 333.474121,330.560699 335.854248,336.671936 
	C330.707611,336.182648 325.423492,335.313019 320.119965,334.584381 
	C318.916016,334.418945 317.644867,334.742279 315.729095,334.910278 
	C311.725830,331.296143 308.398132,327.612335 305.013916,323.604553 
	C303.656158,321.578888 302.354980,319.877228 301.069366,317.842896 
	C300.730042,316.993805 300.375153,316.477356 300.023712,315.982361 
	C300.027161,316.003784 300.066498,315.981201 300.066498,315.981201 
z"/>
<path fill="#4981CE" opacity="1.000000" stroke="none" 
	d="
M353.993347,99.738846 
	C353.824432,101.524101 353.644287,103.070503 353.169830,104.881195 
	C332.528809,105.136040 315.623108,96.634369 299.797821,84.601662 
	C293.763031,80.013138 286.309448,77.290680 279.234222,73.058426 
	C278.982056,70.914909 278.998138,69.430756 279.014221,67.946609 
	C287.444763,67.931328 293.527130,73.083107 299.950745,77.473717 
	C305.427124,81.216896 310.886353,84.985245 316.677094,88.861130 
	C323.049133,91.349480 329.097229,93.719170 335.554474,96.124619 
	C341.658997,97.116722 347.354370,98.073074 353.495789,99.026459 
	C353.941803,99.023483 353.982147,99.500000 353.993347,99.738846 
z"/>
<path fill="#5685CF" opacity="1.000000" stroke="none" 
	d="
M278.895264,67.742188 
	C278.998138,69.430756 278.982056,70.914909 278.933197,72.853264 
	C267.680603,72.991745 257.421478,76.215118 247.792740,81.755966 
	C246.072235,82.746033 244.360291,83.750961 242.314499,84.856995 
	C241.991943,83.600540 241.999252,82.236130 242.012726,80.463737 
	C242.018890,80.055763 242.070755,79.628792 242.091492,79.416435 
	C249.732422,75.756615 257.228699,71.985229 265.026611,69.002296 
	C268.763214,67.572929 273.070770,67.636169 277.559509,67.015564 
	C278.299927,67.123306 278.558929,67.299988 278.895264,67.742188 
z"/>
<path fill="#135CD1" opacity="1.000000" stroke="none" 
	d="
M284.898071,344.629150 
	C283.397461,344.794922 281.642426,344.976227 280.095764,344.492004 
	C261.015961,338.518372 243.078903,329.951172 225.317322,320.139252 
	C224.996338,319.831085 224.995300,319.663422 224.988251,319.244171 
	C227.294907,313.906067 229.607559,308.819489 232.324280,303.403961 
	C236.826340,305.188141 240.829071,307.518524 245.043167,309.367065 
	C252.674698,312.714600 260.432251,315.774872 268.137177,318.955048 
	C272.743103,326.267395 277.328674,333.592743 281.974762,340.879486 
	C282.763428,342.116425 283.811981,343.187653 284.898071,344.629150 
z"/>
<path fill="#1564D4" opacity="1.000000" stroke="none" 
	d="
M268.066040,318.586304 
	C260.432251,315.774872 252.674698,312.714600 245.043167,309.367065 
	C240.829071,307.518524 236.826340,305.188141 232.368866,303.038696 
	C233.674469,296.944885 235.339493,290.887329 237.012344,284.419250 
	C242.183273,286.673981 247.329208,289.373352 252.517715,291.988220 
	C254.679794,293.077850 256.932526,293.987549 259.507233,294.981140 
	C262.578613,302.727966 265.286774,310.472778 268.066040,318.586304 
z"/>
<path fill="#0F75F8" opacity="1.000000" stroke="none" 
	d="
M320.243042,340.869720 
	C330.283966,346.970947 340.101776,353.487915 350.439301,359.036560 
	C358.151428,363.176147 366.535248,366.064362 374.876709,369.766602 
	C354.766541,368.002502 334.623322,365.028778 315.943146,355.939301 
	C314.009094,354.998291 312.188416,353.824249 310.171204,352.119141 
	C313.432495,347.943176 316.837769,344.406464 320.243042,340.869720 
z"/>
<path fill="#1A94F9" opacity="1.000000" stroke="none" 
	d="
M285.050537,280.972137 
	C287.707458,289.381744 290.364410,297.791351 292.694031,306.627228 
	C288.567017,311.064880 284.767334,315.076294 280.663116,319.050964 
	C279.952606,318.979095 279.546661,318.943909 279.140686,318.908722 
	C278.509308,317.484039 277.877960,316.059326 277.453247,314.057129 
	C276.066528,306.677917 274.473145,299.876221 273.193878,292.921021 
	C275.497742,290.572205 277.429291,288.320190 279.495026,286.198853 
	C281.267181,284.378998 283.192810,282.708618 285.050537,280.972137 
z"/>
<path fill="#188BF9" opacity="1.000000" stroke="none" 
	d="
M280.967651,319.087677 
	C284.767334,315.076294 288.567017,311.064880 292.721313,307.009979 
	C295.171417,309.959686 297.266876,312.952942 299.714417,315.963684 
	C300.066498,315.981201 300.027161,316.003784 300.017822,316.308594 
	C300.356934,317.134125 300.705383,317.654846 301.053802,318.175537 
	C302.354980,319.877228 303.656158,321.578888 304.857300,323.908630 
	C300.240479,328.650269 295.723724,332.763824 291.207001,336.877380 
	C287.840881,332.165558 284.474762,327.453735 281.053375,322.024017 
	C280.987946,320.566650 280.977783,319.827148 280.967651,319.087677 
z"/>
<path fill="#1564D4" opacity="1.000000" stroke="none" 
	d="
M272.879791,293.074554 
	C274.473145,299.876221 276.066528,306.677917 277.449158,313.721802 
	C274.510132,305.807190 271.677216,297.683197 269.102112,289.478271 
	C267.980377,285.904205 267.387482,282.164154 266.281006,278.237640 
	C263.078552,262.671417 259.498291,247.674774 245.509918,238.093964 
	C243.350006,236.614594 240.803970,235.698975 238.217804,234.251251 
	C238.328079,231.928772 238.657043,229.877686 239.363129,227.434158 
	C249.093475,230.422119 256.418732,236.176727 261.022583,245.149200 
	C261.906433,246.871750 262.919434,248.528061 263.894775,250.605621 
	C265.601593,258.583221 267.333221,266.160126 268.956970,273.760071 
	C270.329498,280.184357 271.576996,286.635376 272.879791,293.074554 
z"/>
<path fill="#137FF7" opacity="1.000000" stroke="none" 
	d="
M291.290466,337.200134 
	C295.723724,332.763824 300.240479,328.650269 304.913818,324.232635 
	C308.398132,327.612335 311.725830,331.296143 315.361206,335.061157 
	C317.064362,336.868347 318.459839,338.594299 320.049164,340.594971 
	C316.837769,344.406464 313.432495,347.943176 309.974426,351.845428 
	C303.739075,347.314911 297.556488,342.418884 291.290466,337.200134 
z"/>
<path fill="#1564D4" opacity="1.000000" stroke="none" 
	d="
M280.663116,319.050964 
	C280.977783,319.827148 280.987946,320.566650 280.974243,321.677368 
	C280.312469,321.221985 279.674500,320.395386 279.088623,319.238770 
	C279.546661,318.943909 279.952606,318.979095 280.663116,319.050964 
z"/>
<path fill="#1153CE" opacity="1.000000" stroke="none" 
	d="
M169.687134,133.008179 
	C165.236725,126.734276 166.348312,119.095192 173.085495,112.589226 
	C174.055130,111.793747 174.538971,111.401520 175.022812,111.009300 
	C175.022812,111.009300 174.997360,110.998093 175.411285,111.000420 
	C179.881744,111.010696 183.938263,111.018646 187.994781,111.026596 
	C187.994781,111.026596 188.001312,110.998825 188.127762,111.285400 
	C188.836411,111.723854 189.418594,111.875732 190.000793,112.027618 
	C190.000793,112.027618 190.005371,111.996025 190.056061,112.284912 
	C190.409668,112.821869 190.712570,113.069931 191.015472,113.317993 
	C196.215744,119.263222 197.198730,126.001312 193.255844,132.887970 
	C192.456161,133.458267 192.230453,133.749725 192.004745,134.041199 
	C192.004745,134.041199 191.996674,133.994995 191.783600,134.099335 
	C191.384476,134.480896 191.198425,134.758118 191.012390,135.035339 
	C191.012390,135.035339 191.015152,134.992661 190.656662,135.037354 
	C184.171844,139.463058 178.063339,138.272278 171.961426,135.023361 
	C171.961426,135.023361 171.986038,134.993576 171.890533,134.777618 
	C171.518555,134.377716 171.242081,134.193771 170.965607,134.009811 
	C170.965607,134.009811 171.001038,133.995667 170.865417,133.753021 
	C170.382248,133.342972 170.034683,133.175568 169.687134,133.008179 
M191.899719,122.010857 
	C190.446609,117.086044 187.388138,113.843109 182.105362,113.497482 
	C178.047668,113.232010 174.503815,114.734489 172.400391,118.386185 
	C170.034836,122.492889 170.200333,126.696205 173.125305,130.509109 
	C176.102905,134.390579 180.203995,135.196075 184.718979,133.964966 
	C189.417175,132.683914 191.746231,128.971237 191.899719,122.010857 
z"/>
<path fill="#1230A9" opacity="1.000000" stroke="none" 
	d="
M171.982910,135.385895 
	C178.063339,138.272278 184.171844,139.463058 190.670868,135.053421 
	C190.539444,135.901947 190.035324,136.779083 189.265289,137.832336 
	C180.905807,141.165527 176.455963,140.573776 171.982910,135.385895 
z"/>
<path fill="#50BBEE" opacity="1.000000" stroke="none" 
	d="
M187.859192,110.690598 
	C183.938263,111.018646 179.881744,111.010696 175.413528,111.014175 
	C176.463409,110.123131 177.924988,109.220657 179.699295,108.185760 
	C182.582550,108.820419 185.153061,109.587509 187.859192,110.690598 
z"/>
<path fill="#50BBEE" opacity="1.000000" stroke="none" 
	d="
M189.854401,111.755753 
	C189.418594,111.875732 188.836411,111.723854 188.116058,111.293457 
	C188.554596,111.171265 189.131317,111.327583 189.854401,111.755753 
z"/>
<path fill="#50BBEE" opacity="1.000000" stroke="none" 
	d="
M190.946533,113.024506 
	C190.712570,113.069931 190.409668,112.821869 190.040314,112.287392 
	C190.275085,112.244324 190.576340,112.487679 190.946533,113.024506 
z"/>
<path fill="#1230A9" opacity="1.000000" stroke="none" 
	d="
M192.268707,133.952545 
	C192.230453,133.749725 192.456161,133.458267 192.955872,133.082336 
	C192.997467,133.286560 192.765060,133.575226 192.268707,133.952545 
z"/>
<path fill="#1230A9" opacity="1.000000" stroke="none" 
	d="
M191.268433,134.966476 
	C191.198425,134.758118 191.384476,134.480896 191.806396,134.104858 
	C191.869675,134.303223 191.697067,134.600418 191.268433,134.966476 
z"/>
<path fill="#165AC5" opacity="1.000000" stroke="none" 
	d="
M328.849915,259.703308 
	C315.138672,255.246353 301.273254,250.525848 287.445374,245.697876 
	C284.503845,244.670853 281.699036,243.252304 278.461731,242.009644 
	C272.830902,230.822952 266.406342,220.304428 257.591919,211.654343 
	C251.632950,205.806442 244.590057,201.063049 237.923950,195.504272 
	C237.884552,192.431961 237.953217,189.681015 238.026276,186.479675 
	C239.014297,185.031372 240.283676,184.191940 240.938339,183.011551 
	C249.621704,167.355392 269.623962,166.195831 278.987305,181.527954 
	C283.638275,189.143753 286.025452,198.142059 289.711792,206.760956 
	C291.266968,225.652863 297.649017,240.921448 316.058716,249.254730 
	C320.829071,251.414093 324.521545,255.954651 328.849915,259.703308 
z"/>
<path fill="#24AEF9" opacity="1.000000" stroke="none" 
	d="
M229.988876,224.071991 
	C220.283829,225.066986 210.578766,226.061996 200.437576,227.029449 
	C200.001434,227.001892 199.979965,226.984055 199.979980,226.984055 
	C200.324417,226.223434 200.668854,225.462814 201.035492,224.378967 
	C201.057678,224.055740 201.060669,224.029495 201.310837,223.854065 
	C201.731186,223.102020 201.901367,222.525406 202.250214,221.583679 
	C201.949768,216.560837 201.470627,211.903107 200.913239,206.965820 
	C200.542786,206.455200 200.250549,206.224121 199.984055,205.992065 
	C200.009781,205.991089 200.005005,206.042358 199.915405,205.794556 
	C199.537262,205.363190 199.248734,205.179611 198.984253,204.993927 
	C199.008316,204.991806 199.003830,205.039886 198.917908,204.791443 
	C198.542648,204.361938 198.253281,204.180893 197.985321,203.997253 
	C198.006744,203.994659 197.999512,204.037186 197.920502,203.787781 
	C197.551376,203.362335 197.261261,203.186310 196.987717,203.004791 
	C197.004272,202.999298 196.993851,203.032639 196.854034,202.755615 
	C196.134262,202.325104 195.554276,202.171600 194.988129,202.008575 
	C195.001968,201.999069 194.994095,202.031815 194.834106,201.672302 
	C190.656189,199.462799 186.688400,198.426971 183.002411,202.015503 
	C182.998184,201.999207 183.025360,202.018875 182.713867,202.003464 
	C181.936432,202.336761 181.470520,202.685455 180.999969,203.016235 
	C180.995331,202.998291 181.030777,203.008957 180.781921,203.090622 
	C180.355774,203.460510 180.178497,203.748749 179.997437,204.015961 
	C179.993652,203.994934 180.035995,204.000702 179.786713,204.084869 
	C179.357315,204.459274 179.177216,204.749527 178.994629,205.016006 
	C178.992172,204.992233 179.039764,204.996948 178.790924,205.083542 
	C178.359711,205.461441 178.177322,205.752747 177.992599,206.017563 
	C177.990265,205.991074 178.043411,205.992996 177.782776,206.109528 
	C177.352448,206.561813 177.182755,206.897568 176.858887,207.571808 
	C176.470230,213.611069 176.235748,219.311829 176.001251,225.012589 
	C170.808533,222.624603 168.797333,218.054459 168.040802,212.851044 
	C167.662872,210.251617 167.978165,207.551407 168.008148,204.433731 
	C180.211975,193.928665 194.311020,191.044861 209.412643,194.044510 
	C218.221344,195.794205 226.721024,199.099731 235.637299,202.233994 
	C233.939545,209.865814 231.964218,216.968903 229.988876,224.071991 
z"/>
<path fill="#20A6F9" opacity="1.000000" stroke="none" 
	d="
M230.251877,224.334686 
	C231.964218,216.968903 233.939545,209.865814 235.958527,202.382889 
	C251.643433,210.682816 263.272858,223.133270 270.669617,239.670715 
	C268.179565,243.468872 266.026184,246.841888 263.872803,250.214905 
	C262.919434,248.528061 261.906433,246.871750 261.022583,245.149200 
	C256.418732,236.176727 249.093475,230.422119 239.370422,227.042419 
	C236.172028,226.227890 233.343460,225.412643 230.251877,224.334686 
z"/>
<path fill="#1C9DF9" opacity="1.000000" stroke="none" 
	d="
M263.894745,250.605621 
	C266.026184,246.841888 268.179565,243.468872 270.680420,240.041046 
	C272.820618,243.256180 275.188568,246.343277 276.296997,249.830688 
	C279.480072,259.845551 282.153473,270.022400 285.038879,280.553864 
	C283.192810,282.708618 281.267181,284.378998 279.495026,286.198853 
	C277.429291,288.320190 275.497742,290.572205 273.193878,292.921021 
	C271.576996,286.635376 270.329498,280.184357 268.956970,273.760071 
	C267.333221,266.160126 265.601593,258.583221 263.894745,250.605621 
z"/>
<path fill="#207BDA" opacity="1.000000" stroke="none" 
	d="
M176.000610,225.004913 
	C176.235748,219.311829 176.470230,213.611069 177.089600,207.415863 
	C177.664124,206.611954 177.853775,206.302475 178.043411,205.992996 
	C178.043411,205.992996 177.990265,205.991074 178.233215,205.918549 
	C178.664017,205.562988 178.851883,205.279968 179.039764,204.996948 
	C179.039764,204.996948 178.992172,204.992233 179.235077,204.919342 
	C179.664001,204.564529 179.849991,204.282608 180.035980,204.000702 
	C180.035995,204.000702 179.993652,203.994934 180.246536,203.932220 
	C180.676529,203.582672 180.853638,203.295807 181.030762,203.008942 
	C181.030777,203.008957 180.995331,202.998291 181.308197,203.019379 
	C182.089142,202.699936 182.557251,202.359406 183.025360,202.018875 
	C183.025360,202.018875 182.998184,201.999207 183.409668,202.023880 
	C187.545456,202.042969 191.269775,202.037384 194.994095,202.031815 
	C194.994095,202.031815 195.001968,201.999069 195.130951,202.281082 
	C195.837921,202.719604 196.415878,202.876114 196.993851,203.032623 
	C196.993851,203.032639 197.004272,202.999298 197.057068,203.258850 
	C197.406403,203.691330 197.702957,203.864258 197.999512,204.037186 
	C197.999512,204.037186 198.006744,203.994659 198.078873,204.239502 
	C198.435272,204.669540 198.719559,204.854706 199.003830,205.039886 
	C199.003830,205.039886 199.008316,204.991806 199.081161,205.235672 
	C199.437668,205.667145 199.721344,205.854752 200.005005,206.042358 
	C200.005005,206.042358 200.009781,205.991089 200.085144,206.251587 
	C200.437515,206.756500 200.714493,207.000946 200.991486,207.245377 
	C201.470627,211.903107 201.949768,216.560837 201.988251,221.754517 
	C201.385300,222.870148 201.222992,223.449829 201.060669,224.029495 
	C201.060669,224.029495 201.057678,224.055740 201.071777,224.066833 
	C200.171982,224.790894 199.258087,225.503845 197.955948,226.641663 
	C197.371002,227.383392 197.174332,227.700256 196.977646,228.017120 
	C196.977646,228.017120 197.005203,228.007095 196.589752,227.980560 
	C191.110657,227.963120 186.047028,227.972198 180.983383,227.981277 
	C180.983383,227.981277 180.994797,228.006958 180.911469,227.740173 
	C180.541382,227.215027 180.254623,226.956665 179.967865,226.698303 
	C179.181427,226.142166 178.394974,225.586029 177.052155,224.992844 
	C176.325439,224.970261 176.155090,224.984695 175.984756,224.999130 
	C175.984756,224.999130 175.999954,224.997223 176.000610,225.004913 
M186.261780,225.600479 
	C192.073883,226.344040 196.810028,224.085007 198.663254,219.685272 
	C200.441589,215.463364 198.948792,209.679886 195.376083,207.092117 
	C191.832092,204.525101 188.026398,204.168991 184.133163,206.124603 
	C180.363190,208.018341 178.613098,211.224808 178.666382,215.426666 
	C178.727737,220.263275 180.858597,223.653290 186.261780,225.600479 
z"/>
<path fill="#0F34B5" opacity="1.000000" stroke="none" 
	d="
M181.144409,228.316193 
	C186.047028,227.972198 191.110657,227.963120 196.596100,227.967346 
	C192.685287,232.100235 186.801468,232.351303 181.144409,228.316193 
z"/>
<path fill="#24AEF9" opacity="1.000000" stroke="none" 
	d="
M200.010590,227.012848 
	C199.904816,227.049988 199.789871,227.076172 199.827454,227.043213 
	C199.979965,226.984055 200.001434,227.001892 200.010590,227.012848 
z"/>
<path fill="#0F34B5" opacity="1.000000" stroke="none" 
	d="
M197.238586,227.884888 
	C197.174332,227.700256 197.371002,227.383392 197.800949,226.892426 
	C197.855988,227.063095 197.677750,227.407883 197.238586,227.884888 
z"/>
<path fill="#0F34B5" opacity="1.000000" stroke="none" 
	d="
M180.048645,226.987549 
	C180.254623,226.956665 180.541382,227.215027 180.924820,227.744598 
	C180.724136,227.769485 180.426788,227.523148 180.048645,226.987549 
z"/>
<path fill="#24AEF9" opacity="1.000000" stroke="none" 
	d="
M176.067169,225.184494 
	C176.155090,224.984695 176.325439,224.970261 176.751373,224.976959 
	C176.721176,225.122025 176.435394,225.245941 176.067169,225.184494 
z"/>
<path fill="#FDFDFE" opacity="1.000000" stroke="none" 
	d="
M143.896622,170.425400 
	C144.109131,168.715668 144.826035,167.325317 144.566513,166.150696 
	C142.884933,158.539398 148.194763,154.934494 153.312256,151.888931 
	C155.325897,150.690582 158.834259,152.003845 162.248566,152.405762 
	C163.210907,152.681595 163.586639,152.725021 163.962372,152.768433 
	C164.130737,152.822464 164.299103,152.876480 164.731781,152.908112 
	C172.621674,154.911896 180.284805,156.812378 187.841324,159.069748 
	C189.362488,159.524185 191.352600,161.217972 191.528107,162.550827 
	C191.692337,163.798126 190.042450,165.922455 188.662277,166.630920 
	C180.002914,171.076019 171.195740,175.233139 162.224197,179.754288 
	C158.731232,181.457016 155.499039,183.017899 152.151489,184.270569 
	C150.515976,184.882584 148.386322,185.630157 146.970123,185.072510 
	C143.918228,183.870819 142.013351,181.610458 143.173737,177.741653 
	C143.827744,175.561234 143.716156,173.151169 143.896622,170.425400 
z"/>
<path fill="#FDFDFE" opacity="1.000000" stroke="none" 
	d="
M193.124115,279.707458 
	C189.387238,283.073578 185.808243,286.159973 182.090332,289.549683 
	C175.871872,295.228638 169.797546,300.610168 163.710800,305.977631 
	C160.143539,309.123352 154.035507,307.326935 152.709015,302.683075 
	C150.026276,293.291168 147.418854,283.877686 144.591537,274.158752 
	C143.107498,268.894409 141.917404,263.913483 140.474976,259.006775 
	C139.693680,256.349030 139.541183,254.530197 141.839828,252.075195 
	C144.247101,249.504181 146.142532,250.541824 148.351913,251.152390 
	C152.963593,252.426819 157.529633,253.866394 162.508484,255.302582 
	C173.231216,258.688477 183.559891,262.009979 194.068741,265.667114 
	C194.709686,269.469330 195.170441,272.935944 195.733475,277.172028 
	C195.411209,277.468536 194.346603,278.448181 193.124115,279.707458 
z"/>
<path fill="#50BBEE" opacity="1.000000" stroke="none" 
	d="
M174.668274,111.022919 
	C174.538971,111.401520 174.055130,111.793747 173.288239,112.343704 
	C173.441360,112.013138 173.877548,111.524841 174.668274,111.022919 
z"/>
<path fill="#1230A9" opacity="1.000000" stroke="none" 
	d="
M169.859497,133.238342 
	C170.034683,133.175568 170.382248,133.342972 170.861298,133.771622 
	C170.672485,133.844757 170.352173,133.656631 169.859497,133.238342 
z"/>
<path fill="#1230A9" opacity="1.000000" stroke="none" 
	d="
M171.036545,134.264282 
	C171.242081,134.193771 171.518555,134.377716 171.891602,134.796692 
	C171.694611,134.860733 171.401047,134.689743 171.036545,134.264282 
z"/>
<path fill="#2585D3" opacity="1.000000" stroke="none" 
	d="
M163.759094,152.569092 
	C163.586639,152.725021 163.210907,152.681595 162.639099,152.421890 
	C162.813950,152.260330 163.184875,152.315048 163.759094,152.569092 
z"/>
<path fill="#1B76D4" opacity="1.000000" stroke="none" 
	d="
M262.034821,155.344025 
	C269.397766,152.201157 276.145203,155.398849 282.587250,157.982300 
	C296.349915,163.501556 306.473724,173.952087 315.877258,184.973679 
	C319.934448,189.729019 323.135712,195.214661 326.855652,200.685883 
	C320.530365,198.599472 313.792633,196.757294 307.676514,193.679825 
	C293.097565,186.343964 280.183777,176.598831 269.109985,164.550522 
	C266.564026,161.780518 264.405792,158.654175 262.034821,155.344025 
z"/>
<path fill="#44BAF8" opacity="1.000000" stroke="none" 
	d="
M301.069366,317.842896 
	C300.705383,317.654846 300.356934,317.134125 300.014374,316.287170 
	C300.375153,316.477356 300.730042,316.993805 301.069366,317.842896 
z"/>
<path fill="#FDFDFE" opacity="1.000000" stroke="none" 
	d="
M191.951111,122.410004 
	C191.746231,128.971237 189.417175,132.683914 184.718979,133.964966 
	C180.203995,135.196075 176.102905,134.390579 173.125305,130.509109 
	C170.200333,126.696205 170.034836,122.492889 172.400391,118.386185 
	C174.503815,114.734489 178.047668,113.232010 182.105362,113.497482 
	C187.388138,113.843109 190.446609,117.086044 191.951111,122.410004 
z"/>
<path fill="#66C2EF" opacity="1.000000" stroke="none" 
	d="
M194.834106,201.672302 
	C191.269775,202.037384 187.545456,202.042969 183.413879,202.040192 
	C186.688400,198.426971 190.656189,199.462799 194.834106,201.672302 
z"/>
<path fill="#66C2EF" opacity="1.000000" stroke="none" 
	d="
M196.854034,202.755615 
	C196.415878,202.876114 195.837921,202.719604 195.117126,202.290588 
	C195.554276,202.171600 196.134262,202.325104 196.854034,202.755615 
z"/>
<path fill="#66C2EF" opacity="1.000000" stroke="none" 
	d="
M182.713867,202.003464 
	C182.557251,202.359406 182.089142,202.699936 181.312836,203.037323 
	C181.470520,202.685455 181.936432,202.336761 182.713867,202.003464 
z"/>
<path fill="#1B76D4" opacity="1.000000" stroke="none" 
	d="
M201.310837,223.854065 
	C201.222992,223.449829 201.385300,222.870148 201.809570,222.119629 
	C201.901367,222.525406 201.731186,223.102020 201.310837,223.854065 
z"/>
<path fill="#66C2EF" opacity="1.000000" stroke="none" 
	d="
M200.913239,206.965820 
	C200.714493,207.000946 200.437515,206.756500 200.059418,206.252563 
	C200.250549,206.224121 200.542786,206.455200 200.913239,206.965820 
z"/>
<path fill="#66C2EF" opacity="1.000000" stroke="none" 
	d="
M177.782776,206.109528 
	C177.853775,206.302475 177.664124,206.611954 177.243774,207.077377 
	C177.182755,206.897568 177.352448,206.561813 177.782776,206.109528 
z"/>
<path fill="#66C2EF" opacity="1.000000" stroke="none" 
	d="
M199.915405,205.794556 
	C199.721344,205.854752 199.437668,205.667145 199.057098,205.237793 
	C199.248734,205.179611 199.537262,205.363190 199.915405,205.794556 
z"/>
<path fill="#66C2EF" opacity="1.000000" stroke="none" 
	d="
M178.790924,205.083542 
	C178.851883,205.279968 178.664017,205.562988 178.235535,205.945038 
	C178.177322,205.752747 178.359711,205.461441 178.790924,205.083542 
z"/>
<path fill="#66C2EF" opacity="1.000000" stroke="none" 
	d="
M198.917908,204.791443 
	C198.719559,204.854706 198.435272,204.669540 198.057465,204.242096 
	C198.253281,204.180893 198.542648,204.361938 198.917908,204.791443 
z"/>
<path fill="#66C2EF" opacity="1.000000" stroke="none" 
	d="
M179.786697,204.084854 
	C179.849991,204.282608 179.664001,204.564529 179.237549,204.943115 
	C179.177216,204.749527 179.357315,204.459274 179.786697,204.084854 
z"/>
<path fill="#66C2EF" opacity="1.000000" stroke="none" 
	d="
M197.920502,203.787781 
	C197.702957,203.864258 197.406403,203.691330 197.040497,203.264343 
	C197.261261,203.186310 197.551376,203.362335 197.920502,203.787781 
z"/>
<path fill="#66C2EF" opacity="1.000000" stroke="none" 
	d="
M180.781906,203.090607 
	C180.853638,203.295807 180.676529,203.582672 180.250320,203.953247 
	C180.178497,203.748749 180.355774,203.460510 180.781906,203.090607 
z"/>
<path fill="#FDFDFE" opacity="1.000000" stroke="none" 
	d="
M185.904434,225.425446 
	C180.858597,223.653290 178.727737,220.263275 178.666382,215.426666 
	C178.613098,211.224808 180.363190,208.018341 184.133163,206.124603 
	C188.026398,204.168991 191.832092,204.525101 195.376083,207.092117 
	C198.948792,209.679886 200.441589,215.463364 198.663254,219.685272 
	C196.810028,224.085007 192.073883,226.344040 185.904434,225.425446 
z"/>
</svg>